{
	"asset":{
		"generator":"Khronos glTF Blender I/O v3.6.28",
		"version":"2.0"
	},
	"scene":0,
	"scenes":[
		{
			"name":"Scene",
			"nodes":[
				0
			]
		}
	],
	"nodes":[
		{
			"mesh":0,
			"name":"left_hand_thumb_2_link.bbox"
		}
	],
	"meshes":[
		{
			"name":"left_hand_thumb_2_link.bbox",
			"primitives":[
				{
					"attributes":{
						"POSITION":0,
						"NORMAL":1
					},
					"indices":2
				}
			]
		}
	],
	"accessors":[
		{
			"bufferView":0,
			"componentType":5126,
			"count":1214,
			"max":[
				0.008559999987483025,
				0.012900000438094139,
				0.051750000566244125
			],
			"min":[
				-0.008940000087022781,
				-0.013100000098347664,
				-0.006570000201463699
			],
			"type":"VEC3"
		},
		{
			"bufferView":1,
			"componentType":5126,
			"count":1214,
			"type":"VEC3"
		},
		{
			"bufferView":2,
			"componentType":5123,
			"count":1218,
			"type":"SCALAR"
		}
	],
	"bufferViews":[
		{
			"buffer":0,
			"byteLength":14568,
			"byteOffset":0,
			"target":34962
		},
		{
			"buffer":0,
			"byteLength":14568,
			"byteOffset":14568,
			"target":34962
		},
		{
			"buffer":0,
			"byteLength":2436,
			"byteOffset":29136,
			"target":34963
		}
	],
	"buffers":[
		{
			"byteLength":31572,
			"uri":"left_hand_thumb_2_link.bbox.bin"
		}
	]
}
