{
	"asset":{
		"generator":"Khronos glTF Blender I/O v3.6.28",
		"version":"2.0"
	},
	"scene":0,
	"scenes":[
		{
			"name":"Scene",
			"nodes":[
				0
			]
		}
	],
	"nodes":[
		{
			"mesh":0,
			"name":"left_hand_thumb_1_link.bbox"
		}
	],
	"meshes":[
		{
			"name":"left_hand_thumb_1_link.bbox",
			"primitives":[
				{
					"attributes":{
						"POSITION":0,
						"NORMAL":1
					},
					"indices":2
				}
			]
		}
	],
	"accessors":[
		{
			"bufferView":0,
			"componentType":5126,
			"count":694,
			"max":[
				0.014600000344216824,
				0.012799999676644802,
				0.05480000004172325
			],
			"min":[
				-0.012600000016391277,
				-0.012900000438094139,
				0.014990000054240227
			],
			"type":"VEC3"
		},
		{
			"bufferView":1,
			"componentType":5126,
			"count":694,
			"type":"VEC3"
		},
		{
			"bufferView":2,
			"componentType":5123,
			"count":732,
			"type":"SCALAR"
		}
	],
	"bufferViews":[
		{
			"buffer":0,
			"byteLength":8328,
			"byteOffset":0,
			"target":34962
		},
		{
			"buffer":0,
			"byteLength":8328,
			"byteOffset":8328,
			"target":34962
		},
		{
			"buffer":0,
			"byteLength":1464,
			"byteOffset":16656,
			"target":34963
		}
	],
	"buffers":[
		{
			"byteLength":18120,
			"uri":"left_hand_thumb_1_link.bbox.bin"
		}
	]
}
