{
	"asset":{
		"generator":"Khronos glTF Blender I/O v3.6.28",
		"version":"2.0"
	},
	"scene":0,
	"scenes":[
		{
			"name":"Scene",
			"nodes":[
				0
			]
		}
	],
	"nodes":[
		{
			"mesh":0,
			"name":"base_link"
		}
	],
	"meshes":[
		{
			"name":"base_link",
			"primitives":[
				{
					"attributes":{
						"POSITION":0,
						"NORMAL":1
					},
					"indices":2
				}
			]
		}
	],
	"accessors":[
		{
			"bufferView":0,
			"componentType":5126,
			"count":3075,
			"max":[
				0.060000039637088776,
				0.1348000168800354,
				0.06000005826354027
			],
			"min":[
				-0.05999996140599251,
				-5.418379714683397e-06,
				-0.05999962240457535
			],
			"type":"VEC3"
		},
		{
			"bufferView":1,
			"componentType":5126,
			"count":3075,
			"type":"VEC3"
		},
		{
			"bufferView":2,
			"componentType":5123,
			"count":18486,
			"type":"SCALAR"
		}
	],
	"bufferViews":[
		{
			"buffer":0,
			"byteLength":36900,
			"byteOffset":0,
			"target":34962
		},
		{
			"buffer":0,
			"byteLength":36900,
			"byteOffset":36900,
			"target":34962
		},
		{
			"buffer":0,
			"byteLength":36972,
			"byteOffset":73800,
			"target":34963
		}
	],
	"buffers":[
		{
			"byteLength":110772,
			"uri":"base_link.bin"
		}
	]
}
