{
  "asset": {
    "version": "2.0",
    "generator": "Open Asset Import Library (assimp v5.3.0)"
  },
  "extensionsUsed": [
    "KHR_materials_specular",
    "KHR_materials_volume",
    "FB_ngon_encoding"
  ],
  "accessors": [
    {
      "bufferView": 0,
      "byteOffset": 0,
      "componentType": 5126,
      "count": 96,
      "type": "VEC3",
      "max": [
        0.021880000829696655,
        0.050999999046325684,
        0.1473120003938675
      ],
      "min": [
        -0.02020999975502491,
        0.008999999612569809,
        0.12431199848651886
      ]
    },
    {
      "bufferView": 1,
      "byteOffset": 0,
      "componentType": 5126,
      "count": 96,
      "type": "VEC3",
      "max": [
        1,
        1,
        1
      ],
      "min": [
        -1,
        -1,
        -1
      ]
    },
    {
      "bufferView": 2,
      "byteOffset": 0,
      "componentType": 5125,
      "count": 132,
      "type": "SCALAR",
      "max": [
        95
      ],
      "min": [
        0
      ]
    }
  ],
  "buffers": [
    {
      "byteLength": 2832,
      "uri": "CONVUM_SGE-M5-N-realsense-m.bbox.bin"
    }
  ],
  "bufferViews": [
    {
      "buffer": 0,
      "byteOffset": 0,
      "byteLength": 1152,
      "target": 34962
    },
    {
      "buffer": 0,
      "byteOffset": 1152,
      "byteLength": 1152,
      "target": 34962
    },
    {
      "buffer": 0,
      "byteOffset": 2304,
      "byteLength": 528,
      "target": 34963
    }
  ],
  "materials": [
    {
      "name": "DefaultMaterial",
      "pbrMetallicRoughness": {
        "metallicFactor": 0,
        "baseColorFactor": [
          1,
          0,
          0,
          0.25
        ]
      },
      "extensions": {
        "KHR_materials_specular": {
          "specularFactor": 1,
          "specularColorFactor": [
            1,
            1,
            1
          ]
        }
      },
      "alphaMode": "BLEND"
    }
  ],
  "meshes": [
    {
      "primitives": [
        {
          "mode": 4,
          "material": 0,
          "indices": 2,
          "attributes": {
            "POSITION": 0,
            "NORMAL": 1
          }
        }
      ]
    }
  ],
  "nodes": [
    {
      "name": "<STL_BINARY>",
      "children": [
        1
      ]
    },
    {
      "name": "node",
      "mesh": 0
    }
  ],
  "scenes": [
    {
      "nodes": [
        0
      ]
    }
  ],
  "scene": 0
}