{
	"asset":{
		"generator":"Khronos glTF Blender I/O v3.6.28",
		"version":"2.0"
	},
	"scene":0,
	"scenes":[
		{
			"name":"Scene",
			"nodes":[
				0
			]
		}
	],
	"nodes":[
		{
			"mesh":0,
			"name":"Link5"
		}
	],
	"meshes":[
		{
			"name":"Link5",
			"primitives":[
				{
					"attributes":{
						"POSITION":0,
						"NORMAL":1
					},
					"indices":2
				}
			]
		}
	],
	"accessors":[
		{
			"bufferView":0,
			"componentType":5126,
			"count":7291,
			"max":[
				0.03577012941241264,
				0.035373181104660034,
				0.061777785420417786
			],
			"min":[
				-0.03576948121190071,
				-0.05600510537624359,
				-0.06450393795967102
			],
			"type":"VEC3"
		},
		{
			"bufferView":1,
			"componentType":5126,
			"count":7291,
			"type":"VEC3"
		},
		{
			"bufferView":2,
			"componentType":5123,
			"count":43641,
			"type":"SCALAR"
		}
	],
	"bufferViews":[
		{
			"buffer":0,
			"byteLength":87492,
			"byteOffset":0,
			"target":34962
		},
		{
			"buffer":0,
			"byteLength":87492,
			"byteOffset":87492,
			"target":34962
		},
		{
			"buffer":0,
			"byteLength":87282,
			"byteOffset":174984,
			"target":34963
		}
	],
	"buffers":[
		{
			"byteLength":262268,
			"uri":"Link5.bin"
		}
	]
}
