{
	"asset":{
		"generator":"Khronos glTF Blender I/O v3.6.28",
		"version":"2.0"
	},
	"scene":0,
	"scenes":[
		{
			"name":"Scene",
			"nodes":[
				0
			]
		}
	],
	"nodes":[
		{
			"mesh":0,
			"name":"Link4"
		}
	],
	"meshes":[
		{
			"name":"Link4",
			"primitives":[
				{
					"attributes":{
						"POSITION":0,
						"NORMAL":1
					},
					"indices":2
				}
			]
		}
	],
	"accessors":[
		{
			"bufferView":0,
			"componentType":5126,
			"count":6971,
			"max":[
				0.035499684512615204,
				0.03500379994511604,
				0.07649610936641693
			],
			"min":[
				-0.03550044074654579,
				-0.07149607688188553,
				-0.03500387817621231
			],
			"type":"VEC3"
		},
		{
			"bufferView":1,
			"componentType":5126,
			"count":6971,
			"type":"VEC3"
		},
		{
			"bufferView":2,
			"componentType":5123,
			"count":41850,
			"type":"SCALAR"
		}
	],
	"bufferViews":[
		{
			"buffer":0,
			"byteLength":83652,
			"byteOffset":0,
			"target":34962
		},
		{
			"buffer":0,
			"byteLength":83652,
			"byteOffset":83652,
			"target":34962
		},
		{
			"buffer":0,
			"byteLength":83700,
			"byteOffset":167304,
			"target":34963
		}
	],
	"buffers":[
		{
			"byteLength":251004,
			"uri":"Link4.bin"
		}
	]
}
