{
	"asset":{
		"generator":"Khronos glTF Blender I/O v3.6.28",
		"version":"2.0"
	},
	"scene":0,
	"scenes":[
		{
			"name":"Scene",
			"nodes":[
				0
			]
		}
	],
	"nodes":[
		{
			"mesh":0,
			"name":"Link6"
		}
	],
	"meshes":[
		{
			"name":"Link6",
			"primitives":[
				{
					"attributes":{
						"POSITION":0,
						"NORMAL":1
					},
					"indices":2
				}
			]
		}
	],
	"accessors":[
		{
			"bufferView":0,
			"componentType":5126,
			"count":2273,
			"max":[
				0.034999556839466095,
				6.26522123070572e-08,
				0.03500000387430191
			],
			"min":[
				-0.03500047326087952,
				-0.03600000590085983,
				-0.034999996423721313
			],
			"type":"VEC3"
		},
		{
			"bufferView":1,
			"componentType":5126,
			"count":2273,
			"type":"VEC3"
		},
		{
			"bufferView":2,
			"componentType":5123,
			"count":13542,
			"type":"SCALAR"
		}
	],
	"bufferViews":[
		{
			"buffer":0,
			"byteLength":27276,
			"byteOffset":0,
			"target":34962
		},
		{
			"buffer":0,
			"byteLength":27276,
			"byteOffset":27276,
			"target":34962
		},
		{
			"buffer":0,
			"byteLength":27084,
			"byteOffset":54552,
			"target":34963
		}
	],
	"buffers":[
		{
			"byteLength":81636,
			"uri":"Link6.bin"
		}
	]
}
