{
	"asset":{
		"generator":"Khronos glTF Blender I/O v3.6.28",
		"version":"2.0"
	},
	"scene":0,
	"scenes":[
		{
			"name":"Scene",
			"nodes":[
				0
			]
		}
	],
	"nodes":[
		{
			"mesh":0,
			"name":"Link2"
		}
	],
	"meshes":[
		{
			"name":"Link2",
			"primitives":[
				{
					"attributes":{
						"POSITION":0,
						"NORMAL":1
					},
					"indices":2
				}
			]
		}
	],
	"accessors":[
		{
			"bufferView":0,
			"componentType":5126,
			"count":5790,
			"max":[
				0.04541805759072304,
				0.15399670600891113,
				0.044998567551374435
			],
			"min":[
				-0.32126492261886597,
				0.02450002357363701,
				-0.044998910278081894
			],
			"type":"VEC3"
		},
		{
			"bufferView":1,
			"componentType":5126,
			"count":5790,
			"type":"VEC3"
		},
		{
			"bufferView":2,
			"componentType":5123,
			"count":34704,
			"type":"SCALAR"
		}
	],
	"bufferViews":[
		{
			"buffer":0,
			"byteLength":69480,
			"byteOffset":0,
			"target":34962
		},
		{
			"buffer":0,
			"byteLength":69480,
			"byteOffset":69480,
			"target":34962
		},
		{
			"buffer":0,
			"byteLength":69408,
			"byteOffset":138960,
			"target":34963
		}
	],
	"buffers":[
		{
			"byteLength":208368,
			"uri":"Link2.bin"
		}
	]
}
