{
	"asset":{
		"generator":"Khronos glTF Blender I/O v3.6.28",
		"version":"2.0"
	},
	"scene":0,
	"scenes":[
		{
			"name":"Scene",
			"nodes":[
				0
			]
		}
	],
	"nodes":[
		{
			"mesh":0,
			"name":"Link1"
		}
	],
	"meshes":[
		{
			"name":"Link1",
			"primitives":[
				{
					"attributes":{
						"POSITION":0,
						"NORMAL":1
					},
					"indices":2
				}
			]
		}
	],
	"accessors":[
		{
			"bufferView":0,
			"componentType":5126,
			"count":4700,
			"max":[
				0.04448582977056503,
				0.04450704902410507,
				0.07760006189346313
			],
			"min":[
				-0.044485922902822495,
				-0.08809999376535416,
				-0.044641003012657166
			],
			"type":"VEC3"
		},
		{
			"bufferView":1,
			"componentType":5126,
			"count":4700,
			"type":"VEC3"
		},
		{
			"bufferView":2,
			"componentType":5123,
			"count":28224,
			"type":"SCALAR"
		}
	],
	"bufferViews":[
		{
			"buffer":0,
			"byteLength":56400,
			"byteOffset":0,
			"target":34962
		},
		{
			"buffer":0,
			"byteLength":56400,
			"byteOffset":56400,
			"target":34962
		},
		{
			"buffer":0,
			"byteLength":56448,
			"byteOffset":112800,
			"target":34963
		}
	],
	"buffers":[
		{
			"byteLength":169248,
			"uri":"Link1.bin"
		}
	]
}
