{
	"asset":{
		"generator":"Khronos glTF Blender I/O v3.6.28",
		"version":"2.0"
	},
	"scene":0,
	"scenes":[
		{
			"name":"Scene",
			"nodes":[
				0
			]
		}
	],
	"nodes":[
		{
			"mesh":0,
			"name":"Link3"
		}
	],
	"meshes":[
		{
			"name":"Link3",
			"primitives":[
				{
					"attributes":{
						"POSITION":0,
						"NORMAL":1
					},
					"indices":2
				}
			]
		}
	],
	"accessors":[
		{
			"bufferView":0,
			"componentType":5126,
			"count":5794,
			"max":[
				0.04086079075932503,
				0.07450009137392044,
				0.04099991172552109
			],
			"min":[
				-0.26087459921836853,
				-0.04268253594636917,
				-0.04100003093481064
			],
			"type":"VEC3"
		},
		{
			"bufferView":1,
			"componentType":5126,
			"count":5794,
			"type":"VEC3"
		},
		{
			"bufferView":2,
			"componentType":5123,
			"count":34803,
			"type":"SCALAR"
		}
	],
	"bufferViews":[
		{
			"buffer":0,
			"byteLength":69528,
			"byteOffset":0,
			"target":34962
		},
		{
			"buffer":0,
			"byteLength":69528,
			"byteOffset":69528,
			"target":34962
		},
		{
			"buffer":0,
			"byteLength":69606,
			"byteOffset":139056,
			"target":34963
		}
	],
	"buffers":[
		{
			"byteLength":208664,
			"uri":"Link3.bin"
		}
	]
}
