{
	"asset":{
		"generator":"Khronos glTF Blender I/O v3.6.28",
		"version":"2.0"
	},
	"scene":0,
	"scenes":[
		{
			"name":"Scene",
			"nodes":[
				0
			]
		}
	],
	"nodes":[
		{
			"mesh":0,
			"name":"right_hand_thumb_1_link.bbox"
		}
	],
	"meshes":[
		{
			"name":"right_hand_thumb_1_link.bbox",
			"primitives":[
				{
					"attributes":{
						"POSITION":0,
						"NORMAL":1
					},
					"indices":2
				}
			]
		}
	],
	"accessors":[
		{
			"bufferView":0,
			"componentType":5126,
			"count":638,
			"max":[
				0.014589999802410603,
				0.012900000438094139,
				-0.014670000411570072
			],
			"min":[
				-0.012600000016391277,
				-0.012810000218451023,
				-0.05480000004172325
			],
			"type":"VEC3"
		},
		{
			"bufferView":1,
			"componentType":5126,
			"count":638,
			"type":"VEC3"
		},
		{
			"bufferView":2,
			"componentType":5123,
			"count":660,
			"type":"SCALAR"
		}
	],
	"bufferViews":[
		{
			"buffer":0,
			"byteLength":7656,
			"byteOffset":0,
			"target":34962
		},
		{
			"buffer":0,
			"byteLength":7656,
			"byteOffset":7656,
			"target":34962
		},
		{
			"buffer":0,
			"byteLength":1320,
			"byteOffset":15312,
			"target":34963
		}
	],
	"buffers":[
		{
			"byteLength":16632,
			"uri":"right_hand_thumb_1_link.bbox.bin"
		}
	]
}
