{
	"asset":{
		"generator":"Khronos glTF Blender I/O v3.6.28",
		"version":"2.0"
	},
	"scene":0,
	"scenes":[
		{
			"name":"Scene",
			"nodes":[
				0
			]
		}
	],
	"nodes":[
		{
			"mesh":0,
			"name":"right_hand_thumb_2_link.bbox"
		}
	],
	"meshes":[
		{
			"name":"right_hand_thumb_2_link.bbox",
			"primitives":[
				{
					"attributes":{
						"POSITION":0,
						"NORMAL":1
					},
					"indices":2
				}
			]
		}
	],
	"accessors":[
		{
			"bufferView":0,
			"componentType":5126,
			"count":1022,
			"max":[
				0.00851999968290329,
				0.013100000098347664,
				0.006570000201463699
			],
			"min":[
				-0.008919999934732914,
				-0.012900000438094139,
				-0.0517599992454052
			],
			"type":"VEC3"
		},
		{
			"bufferView":1,
			"componentType":5126,
			"count":1022,
			"type":"VEC3"
		},
		{
			"bufferView":2,
			"componentType":5123,
			"count":1026,
			"type":"SCALAR"
		}
	],
	"bufferViews":[
		{
			"buffer":0,
			"byteLength":12264,
			"byteOffset":0,
			"target":34962
		},
		{
			"buffer":0,
			"byteLength":12264,
			"byteOffset":12264,
			"target":34962
		},
		{
			"buffer":0,
			"byteLength":2052,
			"byteOffset":24528,
			"target":34963
		}
	],
	"buffers":[
		{
			"byteLength":26580,
			"uri":"right_hand_thumb_2_link.bbox.bin"
		}
	]
}
