{
	"asset":{
		"generator":"Khronos glTF Blender I/O v3.6.28",
		"version":"2.0"
	},
	"scene":0,
	"scenes":[
		{
			"name":"Scene",
			"nodes":[
				0
			]
		}
	],
	"nodes":[
		{
			"mesh":0,
			"name":"right_hand_middle_1_link.bbox"
		}
	],
	"meshes":[
		{
			"name":"right_hand_middle_1_link.bbox",
			"primitives":[
				{
					"attributes":{
						"POSITION":0,
						"NORMAL":1
					},
					"indices":2
				}
			]
		}
	],
	"accessors":[
		{
			"bufferView":0,
			"componentType":5126,
			"count":1020,
			"max":[
				0.051739998161792755,
				0.012900000438094139,
				0.008919999934732914
			],
			"min":[
				-0.006570000201463699,
				-0.013100000098347664,
				-0.008559999987483025
			],
			"type":"VEC3"
		},
		{
			"bufferView":1,
			"componentType":5126,
			"count":1020,
			"type":"VEC3"
		},
		{
			"bufferView":2,
			"componentType":5123,
			"count":1020,
			"type":"SCALAR"
		}
	],
	"bufferViews":[
		{
			"buffer":0,
			"byteLength":12240,
			"byteOffset":0,
			"target":34962
		},
		{
			"buffer":0,
			"byteLength":12240,
			"byteOffset":12240,
			"target":34962
		},
		{
			"buffer":0,
			"byteLength":2040,
			"byteOffset":24480,
			"target":34963
		}
	],
	"buffers":[
		{
			"byteLength":26520,
			"uri":"right_hand_middle_1_link.bbox.bin"
		}
	]
}
