{
	"asset":{
		"generator":"Khronos glTF Blender I/O v3.6.28",
		"version":"2.0"
	},
	"scene":0,
	"scenes":[
		{
			"name":"Scene",
			"nodes":[
				0
			]
		}
	],
	"nodes":[
		{
			"mesh":0,
			"name":"FINGER_FINGERTIP_v2_02_01_03_29.STEP001"
		}
	],
	"materials":[
		{
			"doubleSided":true,
			"name":"mat_0.001",
			"pbrMetallicRoughness":{}
		},
		{
			"doubleSided":true,
			"name":"mat_1.001",
			"pbrMetallicRoughness":{
				"baseColorFactor":[
					0.012286488898098469,
					0.012286488898098469,
					0.012286488898098469,
					1
				]
			}
		},
		{
			"doubleSided":true,
			"name":"mat_2.001",
			"pbrMetallicRoughness":{
				"baseColorFactor":[
					0.019382363185286522,
					0.019382363185286522,
					0.019382363185286522,
					1
				]
			}
		}
	],
	"meshes":[
		{
			"name":"FINGER_FINGERTIP_v2_02_01_03_29.STEP001",
			"primitives":[
				{
					"attributes":{
						"POSITION":0,
						"NORMAL":1
					},
					"indices":2,
					"material":0
				},
				{
					"attributes":{
						"POSITION":3,
						"NORMAL":4
					},
					"indices":5,
					"material":1
				},
				{
					"attributes":{
						"POSITION":6,
						"NORMAL":7
					},
					"indices":8,
					"material":2
				}
			]
		}
	],
	"accessors":[
		{
			"bufferView":0,
			"componentType":5126,
			"count":264,
			"max":[
				0.010499999858438969,
				0.007000000216066837,
				0.016750000417232513
			],
			"min":[
				-0.010499999858438969,
				-0.004999999888241291,
				-0.017249999567866325
			],
			"type":"VEC3"
		},
		{
			"bufferView":1,
			"componentType":5126,
			"count":264,
			"type":"VEC3"
		},
		{
			"bufferView":2,
			"componentType":5123,
			"count":642,
			"type":"SCALAR"
		},
		{
			"bufferView":3,
			"componentType":5126,
			"count":52,
			"max":[
				0.009999999776482582,
				0.007000000216066837,
				0.016750000417232513
			],
			"min":[
				-0.009999999776482582,
				0.005499999970197678,
				-0.016750000417232513
			],
			"type":"VEC3"
		},
		{
			"bufferView":4,
			"componentType":5126,
			"count":52,
			"type":"VEC3"
		},
		{
			"bufferView":5,
			"componentType":5123,
			"count":126,
			"type":"SCALAR"
		},
		{
			"bufferView":6,
			"componentType":5126,
			"count":22,
			"max":[
				0.009999999776482582,
				0.007000000216066837,
				0.016750000417232513
			],
			"min":[
				-0.009999999776482582,
				0.007000000216066837,
				-0.016750000417232513
			],
			"type":"VEC3"
		},
		{
			"bufferView":7,
			"componentType":5126,
			"count":22,
			"type":"VEC3"
		},
		{
			"bufferView":8,
			"componentType":5123,
			"count":60,
			"type":"SCALAR"
		}
	],
	"bufferViews":[
		{
			"buffer":0,
			"byteLength":3168,
			"byteOffset":0,
			"target":34962
		},
		{
			"buffer":0,
			"byteLength":3168,
			"byteOffset":3168,
			"target":34962
		},
		{
			"buffer":0,
			"byteLength":1284,
			"byteOffset":6336,
			"target":34963
		},
		{
			"buffer":0,
			"byteLength":624,
			"byteOffset":7620,
			"target":34962
		},
		{
			"buffer":0,
			"byteLength":624,
			"byteOffset":8244,
			"target":34962
		},
		{
			"buffer":0,
			"byteLength":252,
			"byteOffset":8868,
			"target":34963
		},
		{
			"buffer":0,
			"byteLength":264,
			"byteOffset":9120,
			"target":34962
		},
		{
			"buffer":0,
			"byteLength":264,
			"byteOffset":9384,
			"target":34962
		},
		{
			"buffer":0,
			"byteLength":120,
			"byteOffset":9648,
			"target":34963
		}
	],
	"buffers":[
		{
			"byteLength":9768,
			"uri":"AG-160-95-3a.bin"
		}
	]
}
