{
	"asset":{
		"generator":"Khronos glTF Blender I/O v3.6.28",
		"version":"2.0"
	},
	"scene":0,
	"scenes":[
		{
			"name":"Scene",
			"nodes":[
				0
			]
		}
	],
	"nodes":[
		{
			"mesh":0,
			"name":"FINGER_DISTAL_PHALANX_v2_02_01_07_07.step.STEP001"
		}
	],
	"materials":[
		{
			"doubleSided":true,
			"name":"mat_0.003",
			"pbrMetallicRoughness":{}
		}
	],
	"meshes":[
		{
			"name":"FINGER_DISTAL_PHALANX_v2_02_01_07_07.step.STEP001",
			"primitives":[
				{
					"attributes":{
						"POSITION":0,
						"NORMAL":1
					},
					"indices":2,
					"material":0
				}
			]
		}
	],
	"accessors":[
		{
			"bufferView":0,
			"componentType":5126,
			"count":1870,
			"max":[
				0.026173237711191177,
				0.008750000037252903,
				0.013023283332586288
			],
			"min":[
				-0.005499999970197678,
				-0.008750000037252903,
				-0.014999999664723873
			],
			"type":"VEC3"
		},
		{
			"bufferView":1,
			"componentType":5126,
			"count":1870,
			"type":"VEC3"
		},
		{
			"bufferView":2,
			"componentType":5123,
			"count":5274,
			"type":"SCALAR"
		}
	],
	"bufferViews":[
		{
			"buffer":0,
			"byteLength":22440,
			"byteOffset":0,
			"target":34962
		},
		{
			"buffer":0,
			"byteLength":22440,
			"byteOffset":22440,
			"target":34962
		},
		{
			"buffer":0,
			"byteLength":10548,
			"byteOffset":44880,
			"target":34963
		}
	],
	"buffers":[
		{
			"byteLength":55428,
			"uri":"AG-160-95-4a.bin"
		}
	]
}
