{
	"asset":{
		"generator":"Khronos glTF Blender I/O v3.6.28",
		"version":"2.0"
	},
	"scene":0,
	"scenes":[
		{
			"name":"Scene",
			"nodes":[
				0
			]
		}
	],
	"nodes":[
		{
			"mesh":0,
			"name":"A.STEP022"
		}
	],
	"materials":[
		{
			"doubleSided":true,
			"name":"mat_0",
			"pbrMetallicRoughness":{
				"baseColorFactor":[
					0.6038273572921753,
					0.6038273572921753,
					0.6038273572921753,
					1
				]
			}
		},
		{
			"doubleSided":true,
			"name":"mat_1",
			"pbrMetallicRoughness":{
				"baseColorFactor":[
					0.5972018241882324,
					0.6444796919822693,
					0.8631572127342224,
					1
				]
			}
		},
		{
			"doubleSided":true,
			"name":"mat_2",
			"pbrMetallicRoughness":{
				"baseColorFactor":[
					0.03433980792760849,
					0.03433980792760849,
					0.03433980792760849,
					1
				]
			}
		},
		{
			"doubleSided":true,
			"name":"mat_3",
			"pbrMetallicRoughness":{}
		},
		{
			"doubleSided":true,
			"name":"mat_4",
			"pbrMetallicRoughness":{
				"baseColorFactor":[
					0.5647115111351013,
					0.5332763195037842,
					0.5028864741325378,
					1
				]
			}
		}
	],
	"meshes":[
		{
			"name":"A.STEP022",
			"primitives":[
				{
					"attributes":{
						"POSITION":0,
						"NORMAL":1
					},
					"indices":2,
					"material":0
				},
				{
					"attributes":{
						"POSITION":3,
						"NORMAL":4
					},
					"indices":5,
					"material":1
				},
				{
					"attributes":{
						"POSITION":6,
						"NORMAL":7
					},
					"indices":8,
					"material":2
				},
				{
					"attributes":{
						"POSITION":9,
						"NORMAL":10
					},
					"indices":11,
					"material":3
				},
				{
					"attributes":{
						"POSITION":12,
						"NORMAL":13
					},
					"indices":14,
					"material":4
				}
			]
		}
	],
	"accessors":[
		{
			"bufferView":0,
			"componentType":5126,
			"count":1944,
			"max":[
				0.05881070718169212,
				-0.0007594083435833454,
				0.033980052918195724
			],
			"min":[
				-0.03507499769330025,
				-0.026207730174064636,
				-0.08166542649269104
			],
			"type":"VEC3"
		},
		{
			"bufferView":1,
			"componentType":5126,
			"count":1944,
			"type":"VEC3"
		},
		{
			"bufferView":2,
			"componentType":5123,
			"count":3750,
			"type":"SCALAR"
		},
		{
			"bufferView":3,
			"componentType":5126,
			"count":851,
			"max":[
				0.05843847617506981,
				0.02470773085951805,
				0.045646026730537415
			],
			"min":[
				-0.03470277041196823,
				-0.026193922385573387,
				0.033964116126298904
			],
			"type":"VEC3"
		},
		{
			"bufferView":4,
			"componentType":5126,
			"count":851,
			"type":"VEC3"
		},
		{
			"bufferView":5,
			"componentType":5123,
			"count":2007,
			"type":"SCALAR"
		},
		{
			"bufferView":6,
			"componentType":5126,
			"count":1673,
			"max":[
				0.05881070718169212,
				0.02569946087896824,
				0.03398005664348602
			],
			"min":[
				-0.03507499769330025,
				-0.014750000089406967,
				-0.08166542649269104
			],
			"type":"VEC3"
		},
		{
			"bufferView":7,
			"componentType":5126,
			"count":1673,
			"type":"VEC3"
		},
		{
			"bufferView":8,
			"componentType":5123,
			"count":3720,
			"type":"SCALAR"
		},
		{
			"bufferView":9,
			"componentType":5126,
			"count":2120,
			"max":[
				0.04678763449192047,
				0.026332003995776176,
				0.024459484964609146
			],
			"min":[
				-0.03229615092277527,
				-0.010527619160711765,
				-0.08396906405687332
			],
			"type":"VEC3"
		},
		{
			"bufferView":10,
			"componentType":5126,
			"count":2120,
			"type":"VEC3"
		},
		{
			"bufferView":11,
			"componentType":5123,
			"count":4605,
			"type":"SCALAR"
		},
		{
			"bufferView":12,
			"componentType":5126,
			"count":501,
			"max":[
				0.041955847293138504,
				0.019289782270789146,
				0.045504067093133926
			],
			"min":[
				-0.018220139667391777,
				-0.02078978344798088,
				0.041380055248737335
			],
			"type":"VEC3"
		},
		{
			"bufferView":13,
			"componentType":5126,
			"count":501,
			"type":"VEC3"
		},
		{
			"bufferView":14,
			"componentType":5123,
			"count":1098,
			"type":"SCALAR"
		}
	],
	"bufferViews":[
		{
			"buffer":0,
			"byteLength":23328,
			"byteOffset":0,
			"target":34962
		},
		{
			"buffer":0,
			"byteLength":23328,
			"byteOffset":23328,
			"target":34962
		},
		{
			"buffer":0,
			"byteLength":7500,
			"byteOffset":46656,
			"target":34963
		},
		{
			"buffer":0,
			"byteLength":10212,
			"byteOffset":54156,
			"target":34962
		},
		{
			"buffer":0,
			"byteLength":10212,
			"byteOffset":64368,
			"target":34962
		},
		{
			"buffer":0,
			"byteLength":4014,
			"byteOffset":74580,
			"target":34963
		},
		{
			"buffer":0,
			"byteLength":20076,
			"byteOffset":78596,
			"target":34962
		},
		{
			"buffer":0,
			"byteLength":20076,
			"byteOffset":98672,
			"target":34962
		},
		{
			"buffer":0,
			"byteLength":7440,
			"byteOffset":118748,
			"target":34963
		},
		{
			"buffer":0,
			"byteLength":25440,
			"byteOffset":126188,
			"target":34962
		},
		{
			"buffer":0,
			"byteLength":25440,
			"byteOffset":151628,
			"target":34962
		},
		{
			"buffer":0,
			"byteLength":9210,
			"byteOffset":177068,
			"target":34963
		},
		{
			"buffer":0,
			"byteLength":6012,
			"byteOffset":186280,
			"target":34962
		},
		{
			"buffer":0,
			"byteLength":6012,
			"byteOffset":192292,
			"target":34962
		},
		{
			"buffer":0,
			"byteLength":2196,
			"byteOffset":198304,
			"target":34963
		}
	],
	"buffers":[
		{
			"byteLength":200500,
			"uri":"AG-160-95-body.bin"
		}
	]
}
