{
	"asset":{
		"generator":"Khronos glTF Blender I/O v3.6.28",
		"version":"2.0"
	},
	"scene":0,
	"scenes":[
		{
			"name":"Scene",
			"nodes":[
				0
			]
		}
	],
	"nodes":[
		{
			"mesh":0,
			"name":"FINGER_PROXIMAL_PHALANX_V3_29.STEP001"
		}
	],
	"materials":[
		{
			"doubleSided":true,
			"name":"mat_0.002",
			"pbrMetallicRoughness":{
				"baseColorFactor":[
					0.5972018241882324,
					0.6444796919822693,
					0.8631572127342224,
					1
				]
			}
		},
		{
			"doubleSided":true,
			"name":"mat_1.002",
			"pbrMetallicRoughness":{
				"baseColorFactor":[
					0.027320893481373787,
					0.027320893481373787,
					0.027320893481373787,
					1
				]
			}
		}
	],
	"meshes":[
		{
			"name":"FINGER_PROXIMAL_PHALANX_V3_29.STEP001",
			"primitives":[
				{
					"attributes":{
						"POSITION":0,
						"NORMAL":1
					},
					"indices":2,
					"material":0
				},
				{
					"attributes":{
						"POSITION":3,
						"NORMAL":4
					},
					"indices":5,
					"material":1
				}
			]
		}
	],
	"accessors":[
		{
			"bufferView":0,
			"componentType":5126,
			"count":60,
			"max":[
				0.004798006732016802,
				0.025499999523162842,
				0.05929574742913246
			],
			"min":[
				-0.0037980068009346724,
				-0.025499999523162842,
				0.050699710845947266
			],
			"type":"VEC3"
		},
		{
			"bufferView":1,
			"componentType":5126,
			"count":60,
			"type":"VEC3"
		},
		{
			"bufferView":2,
			"componentType":5123,
			"count":114,
			"type":"SCALAR"
		},
		{
			"bufferView":3,
			"componentType":5126,
			"count":711,
			"max":[
				0.006714758928865194,
				0.025527849793434143,
				0.06183302775025368
			],
			"min":[
				-0.0062668765895068645,
				-0.02553560398519039,
				-0.006305078975856304
			],
			"type":"VEC3"
		},
		{
			"bufferView":4,
			"componentType":5126,
			"count":711,
			"type":"VEC3"
		},
		{
			"bufferView":5,
			"componentType":5123,
			"count":1461,
			"type":"SCALAR"
		}
	],
	"bufferViews":[
		{
			"buffer":0,
			"byteLength":720,
			"byteOffset":0,
			"target":34962
		},
		{
			"buffer":0,
			"byteLength":720,
			"byteOffset":720,
			"target":34962
		},
		{
			"buffer":0,
			"byteLength":228,
			"byteOffset":1440,
			"target":34963
		},
		{
			"buffer":0,
			"byteLength":8532,
			"byteOffset":1668,
			"target":34962
		},
		{
			"buffer":0,
			"byteLength":8532,
			"byteOffset":10200,
			"target":34962
		},
		{
			"buffer":0,
			"byteLength":2922,
			"byteOffset":18732,
			"target":34963
		}
	],
	"buffers":[
		{
			"byteLength":21656,
			"uri":"AG-160-95-2a.bin"
		}
	]
}
