{
	"asset":{
		"generator":"Khronos glTF Blender I/O v3.6.28",
		"version":"2.0"
	},
	"scene":0,
	"scenes":[
		{
			"name":"Scene",
			"nodes":[
				0
			]
		}
	],
	"nodes":[
		{
			"mesh":0,
			"name":"left_hand_index_0_link.bbox"
		}
	],
	"meshes":[
		{
			"name":"left_hand_index_0_link.bbox",
			"primitives":[
				{
					"attributes":{
						"POSITION":0,
						"NORMAL":1
					},
					"indices":2
				}
			]
		}
	],
	"accessors":[
		{
			"bufferView":0,
			"componentType":5126,
			"count":686,
			"max":[
				0.05480000004172325,
				0.012910000048577785,
				0.01460999995470047
			],
			"min":[
				0.014990000054240227,
				-0.012799999676644802,
				-0.012600000016391277
			],
			"type":"VEC3"
		},
		{
			"bufferView":1,
			"componentType":5126,
			"count":686,
			"type":"VEC3"
		},
		{
			"bufferView":2,
			"componentType":5123,
			"count":720,
			"type":"SCALAR"
		}
	],
	"bufferViews":[
		{
			"buffer":0,
			"byteLength":8232,
			"byteOffset":0,
			"target":34962
		},
		{
			"buffer":0,
			"byteLength":8232,
			"byteOffset":8232,
			"target":34962
		},
		{
			"buffer":0,
			"byteLength":1440,
			"byteOffset":16464,
			"target":34963
		}
	],
	"buffers":[
		{
			"byteLength":17904,
			"uri":"left_hand_index_0_link.bbox.bin"
		}
	]
}
