{
	"asset":{
		"generator":"Khronos glTF Blender I/O v3.6.28",
		"version":"2.0"
	},
	"scene":0,
	"scenes":[
		{
			"name":"Scene",
			"nodes":[
				0
			]
		}
	],
	"nodes":[
		{
			"mesh":0,
			"name":"left_hand_index_1_link.bbox"
		}
	],
	"meshes":[
		{
			"name":"left_hand_index_1_link.bbox",
			"primitives":[
				{
					"attributes":{
						"POSITION":0,
						"NORMAL":1
					},
					"indices":2
				}
			]
		}
	],
	"accessors":[
		{
			"bufferView":0,
			"componentType":5126,
			"count":1104,
			"max":[
				0.051750000566244125,
				0.01310999970883131,
				0.008580000139772892
			],
			"min":[
				-0.006570000201463699,
				-0.012900000438094139,
				-0.00892999954521656
			],
			"type":"VEC3"
		},
		{
			"bufferView":1,
			"componentType":5126,
			"count":1104,
			"type":"VEC3"
		},
		{
			"bufferView":2,
			"componentType":5123,
			"count":1110,
			"type":"SCALAR"
		}
	],
	"bufferViews":[
		{
			"buffer":0,
			"byteLength":13248,
			"byteOffset":0,
			"target":34962
		},
		{
			"buffer":0,
			"byteLength":13248,
			"byteOffset":13248,
			"target":34962
		},
		{
			"buffer":0,
			"byteLength":2220,
			"byteOffset":26496,
			"target":34963
		}
	],
	"buffers":[
		{
			"byteLength":28716,
			"uri":"left_hand_index_1_link.bbox.bin"
		}
	]
}
