{
    "asset": {
        "version": "2.0",
        "generator": "Open Asset Import Library (assimp v5.3.0)"
    },
    "extensionsUsed": [
        "KHR_materials_specular",
        "KHR_materials_volume",
        "KHR_materials_ior",
        "FB_ngon_encoding"
    ],
    "accessors": [
        {
            "bufferView": 0,
            "byteOffset": 0,
            "componentType": 5126,
            "count": 1686,
            "type": "VEC3",
            "max": [
                0.04606198891997337,
                0.04615670070052147,
                0.1708499938249588
            ],
            "min": [
                -0.04600000008940697,
                -0.04600000008940697,
                0.038299791514873508
            ]
        },
        {
            "bufferView": 1,
            "byteOffset": 0,
            "componentType": 5126,
            "count": 1686,
            "type": "VEC3",
            "max": [
                1.0,
                1.0,
                1.0
            ],
            "min": [
                -1.0,
                -1.0,
                -1.0
            ]
        },
        {
            "bufferView": 2,
            "byteOffset": 0,
            "componentType": 5125,
            "count": 4713,
            "type": "SCALAR",
            "max": [
                1685
            ],
            "min": [
                0
            ]
        },
        {
            "bufferView": 3,
            "byteOffset": 0,
            "componentType": 5126,
            "count": 2121,
            "type": "VEC3",
            "max": [
                0.0464395210146904,
                0.04599713906645775,
                0.09529995173215866
            ],
            "min": [
                -0.04605209082365036,
                -0.04599713906645775,
                0.0
            ]
        },
        {
            "bufferView": 4,
            "byteOffset": 0,
            "componentType": 5126,
            "count": 2121,
            "type": "VEC3",
            "max": [
                1.0,
                1.0,
                1.0
            ],
            "min": [
                -1.0,
                -1.0,
                -1.0
            ]
        },
        {
            "bufferView": 5,
            "byteOffset": 0,
            "componentType": 5125,
            "count": 6003,
            "type": "SCALAR",
            "max": [
                2120
            ],
            "min": [
                0
            ]
        }
    ],
    "buffers": [
        {
            "byteLength": 134232,
            "uri": "base_link.dae.bin"
        }
    ],
    "bufferViews": [
        {
            "buffer": 0,
            "byteOffset": 0,
            "byteLength": 20232,
            "target": 34962
        },
        {
            "buffer": 0,
            "byteOffset": 20232,
            "byteLength": 20232,
            "target": 34962
        },
        {
            "buffer": 0,
            "byteOffset": 40464,
            "byteLength": 18852,
            "target": 34963
        },
        {
            "buffer": 0,
            "byteOffset": 59316,
            "byteLength": 25452,
            "target": 34962
        },
        {
            "buffer": 0,
            "byteOffset": 84768,
            "byteLength": 25452,
            "target": 34962
        },
        {
            "buffer": 0,
            "byteOffset": 110220,
            "byteLength": 24012,
            "target": 34963
        }
    ],
    "materials": [
        {
            "name": "Blue_002",
            "pbrMetallicRoughness": {
                "baseColorFactor": [
                    0.0,
                    0.0,
                    1.0,
                    1.0
                ],
                "metallicFactor": 0.0,
                "roughnessFactor": 0.888196587562561
            },
            "extensions": {
                "KHR_materials_specular": {
                    "specularFactor": 1.0,
                    "specularColorFactor": [
                        0.5,
                        0.5,
                        0.5
                    ]
                },
                "KHR_materials_ior": {
                    "ior": 1.0
                }
            }
        },
        {
            "name": "White_002",
            "pbrMetallicRoughness": {
                "metallicFactor": 0.0,
                "roughnessFactor": 0.888196587562561
            },
            "extensions": {
                "KHR_materials_specular": {
                    "specularFactor": 1.0,
                    "specularColorFactor": [
                        0.5,
                        0.5,
                        0.5
                    ]
                },
                "KHR_materials_ior": {
                    "ior": 1.0
                }
            }
        }
    ],
    "meshes": [
        {
            "name": "base_link_002-mesh",
            "primitives": [
                {
                    "mode": 4,
                    "material": 1,
                    "indices": 2,
                    "attributes": {
                        "POSITION": 0,
                        "NORMAL": 1
                    }
                },
                {
                    "mode": 4,
                    "material": 0,
                    "indices": 5,
                    "attributes": {
                        "POSITION": 3,
                        "NORMAL": 4
                    }
                }
            ]
        }
    ],
    "nodes": [
        {
            "name": "Scene",
            "matrix": [
                1.0,
                0.0,
                0.0,
                0.0,
                0.0,
                0.0,
                -1.0,
                0.0,
                0.0,
                1.0,
                0.0,
                0.0,
                0.0,
                0.0,
                0.0,
                1.0
            ],
            "children": [
                1
            ]
        },
        {
            "name": "base_link",
            "mesh": 0
        }
    ],
    "scenes": [
        {
            "nodes": [
                0
            ]
        }
    ],
    "scene": 0
}