{
    "asset": {
        "version": "2.0",
        "generator": "Open Asset Import Library (assimp v5.3.0)"
    },
    "extensionsUsed": [
        "KHR_materials_specular",
        "KHR_materials_volume",
        "KHR_materials_ior",
        "FB_ngon_encoding"
    ],
    "accessors": [
        {
            "bufferView": 0,
            "byteOffset": 0,
            "componentType": 5126,
            "count": 6521,
            "type": "VEC3",
            "max": [
                0.03499995917081833,
                0.03499995917081833,
                -0.002499996917322278
            ],
            "min": [
                -0.03499834984540939,
                -0.05304646119475365,
                -0.14100369811058045
            ]
        },
        {
            "bufferView": 1,
            "byteOffset": 0,
            "componentType": 5126,
            "count": 6521,
            "type": "VEC3",
            "max": [
                1.0,
                1.0,
                1.0
            ],
            "min": [
                -1.0,
                -1.0,
                -1.0
            ]
        },
        {
            "bufferView": 2,
            "byteOffset": 0,
            "componentType": 5125,
            "count": 28848,
            "type": "SCALAR",
            "max": [
                6520
            ],
            "min": [
                0
            ]
        }
    ],
    "buffers": [
        {
            "byteLength": 271896,
            "uri": "spherical_wrist_1_link.dae.bin"
        }
    ],
    "bufferViews": [
        {
            "buffer": 0,
            "byteOffset": 0,
            "byteLength": 78252,
            "target": 34962
        },
        {
            "buffer": 0,
            "byteOffset": 78252,
            "byteLength": 78252,
            "target": 34962
        },
        {
            "buffer": 0,
            "byteOffset": 156504,
            "byteLength": 115392,
            "target": 34963
        }
    ],
    "materials": [
        {
            "name": "White",
            "pbrMetallicRoughness": {
                "metallicFactor": 0.0,
                "roughnessFactor": 0.888196587562561
            },
            "extensions": {
                "KHR_materials_specular": {
                    "specularFactor": 1.0,
                    "specularColorFactor": [
                        0.5,
                        0.5,
                        0.5
                    ]
                },
                "KHR_materials_ior": {
                    "ior": 1.0
                }
            }
        }
    ],
    "meshes": [
        {
            "name": "spherical_wrist_1_link-mesh",
            "primitives": [
                {
                    "mode": 4,
                    "material": 0,
                    "indices": 2,
                    "attributes": {
                        "POSITION": 0,
                        "NORMAL": 1
                    }
                }
            ]
        }
    ],
    "nodes": [
        {
            "name": "Scene",
            "matrix": [
                1.0,
                0.0,
                0.0,
                0.0,
                0.0,
                0.0,
                -1.0,
                0.0,
                0.0,
                1.0,
                0.0,
                0.0,
                0.0,
                0.0,
                0.0,
                1.0
            ],
            "children": [
                1
            ]
        },
        {
            "name": "spherical_wrist_1_link",
            "mesh": 0
        }
    ],
    "scenes": [
        {
            "nodes": [
                0
            ]
        }
    ],
    "scene": 0
}