{
	"asset":{
		"generator":"Khronos glTF Blender I/O v3.6.28",
		"version":"2.0"
	},
	"scene":0,
	"scenes":[
		{
			"name":"Scene",
			"nodes":[
				0
			]
		}
	],
	"nodes":[
		{
			"mesh":0,
			"name":"torso_link_rev_1_0"
		}
	],
	"meshes":[
		{
			"name":"torso_link_rev_1_0",
			"primitives":[
				{
					"attributes":{
						"POSITION":0,
						"NORMAL":1
					},
					"indices":2
				}
			]
		}
	],
	"accessors":[
		{
			"bufferView":0,
			"componentType":5126,
			"count":25663,
			"max":[
				0.08362708240747452,
				0.31161943078041077,
				0.10771311819553375
			],
			"min":[
				-0.06664276123046875,
				-0.008908695541322231,
				-0.10771439224481583
			],
			"type":"VEC3"
		},
		{
			"bufferView":1,
			"componentType":5126,
			"count":25663,
			"type":"VEC3"
		},
		{
			"bufferView":2,
			"componentType":5123,
			"count":154209,
			"type":"SCALAR"
		}
	],
	"bufferViews":[
		{
			"buffer":0,
			"byteLength":307956,
			"byteOffset":0,
			"target":34962
		},
		{
			"buffer":0,
			"byteLength":307956,
			"byteOffset":307956,
			"target":34962
		},
		{
			"buffer":0,
			"byteLength":308418,
			"byteOffset":615912,
			"target":34963
		}
	],
	"buffers":[
		{
			"byteLength":924332,
			"uri":"torso_link_rev_1_0.bin"
		}
	]
}
