{
	"asset":{
		"generator":"Khronos glTF Blender I/O v3.6.28",
		"version":"2.0"
	},
	"scene":0,
	"scenes":[
		{
			"name":"Scene",
			"nodes":[
				0
			]
		}
	],
	"nodes":[
		{
			"mesh":0,
			"name":"waist_yaw_link_rev_1_0"
		}
	],
	"meshes":[
		{
			"name":"waist_yaw_link_rev_1_0",
			"primitives":[
				{
					"attributes":{
						"POSITION":0,
						"NORMAL":1
					},
					"indices":2
				}
			]
		}
	],
	"accessors":[
		{
			"bufferView":0,
			"componentType":5126,
			"count":6100,
			"max":[
				0.0423685759305954,
				0.053999822586774826,
				0.04246886819601059
			],
			"min":[
				-0.042499881237745285,
				-0.00020057815709151328,
				-0.04246227815747261
			],
			"type":"VEC3"
		},
		{
			"bufferView":1,
			"componentType":5126,
			"count":6100,
			"type":"VEC3"
		},
		{
			"bufferView":2,
			"componentType":5123,
			"count":37194,
			"type":"SCALAR"
		}
	],
	"bufferViews":[
		{
			"buffer":0,
			"byteLength":73200,
			"byteOffset":0,
			"target":34962
		},
		{
			"buffer":0,
			"byteLength":73200,
			"byteOffset":73200,
			"target":34962
		},
		{
			"buffer":0,
			"byteLength":74388,
			"byteOffset":146400,
			"target":34963
		}
	],
	"buffers":[
		{
			"byteLength":220788,
			"uri":"waist_yaw_link_rev_1_0.bin"
		}
	]
}
