{
	"asset":{
		"generator":"Khronos glTF Blender I/O v3.6.28",
		"version":"2.0"
	},
	"scene":0,
	"scenes":[
		{
			"name":"Scene",
			"nodes":[
				0
			]
		}
	],
	"nodes":[
		{
			"mesh":0,
			"name":"waist_roll_link_rev_1_0"
		}
	],
	"meshes":[
		{
			"name":"waist_roll_link_rev_1_0",
			"primitives":[
				{
					"attributes":{
						"POSITION":0,
						"NORMAL":1
					},
					"indices":2
				}
			]
		}
	],
	"accessors":[
		{
			"bufferView":0,
			"componentType":5126,
			"count":858,
			"max":[
				0.01700076274573803,
				0.011993393301963806,
				0.01000189408659935
			],
			"min":[
				-0.01700076274573803,
				-0.011993408203125,
				-0.010001895017921925
			],
			"type":"VEC3"
		},
		{
			"bufferView":1,
			"componentType":5126,
			"count":858,
			"type":"VEC3"
		},
		{
			"bufferView":2,
			"componentType":5123,
			"count":5148,
			"type":"SCALAR"
		}
	],
	"bufferViews":[
		{
			"buffer":0,
			"byteLength":10296,
			"byteOffset":0,
			"target":34962
		},
		{
			"buffer":0,
			"byteLength":10296,
			"byteOffset":10296,
			"target":34962
		},
		{
			"buffer":0,
			"byteLength":10296,
			"byteOffset":20592,
			"target":34963
		}
	],
	"buffers":[
		{
			"byteLength":30888,
			"uri":"waist_roll_link_rev_1_0.bin"
		}
	]
}
