{
	"asset":{
		"generator":"Khronos glTF Blender I/O v3.6.28",
		"version":"2.0"
	},
	"scene":0,
	"scenes":[
		{
			"name":"Scene",
			"nodes":[
				0,
				1
			]
		}
	],
	"nodes":[
		{
			"mesh":0,
			"name":"eSeries_UR5e_013",
			"rotation":[
				0,
				-0.7071068286895752,
				0.7071068286895752,
				1.3767879636361613e-07
			],
			"scale":[
				0.0009999870089814067,
				0.0009999870089814067,
				0.0009999870089814067
			]
		},
		{
			"mesh":1,
			"name":"eSeries_UR5e_006",
			"rotation":[
				0,
				-0.7071068286895752,
				0.7071068286895752,
				1.3767879636361613e-07
			],
			"scale":[
				0.0009999870089814067,
				0.0009999870089814067,
				0.0009999870089814067
			]
		}
	],
	"materials":[
		{
			"doubleSided":true,
			"name":"JointGrey",
			"pbrMetallicRoughness":{
				"baseColorFactor":[
					0.27843141555786133,
					0.27843141555786133,
					0.27843141555786133,
					1
				],
				"metallicFactor":0,
				"roughnessFactor":0.5
			}
		},
		{
			"doubleSided":true,
			"name":"Black",
			"pbrMetallicRoughness":{
				"baseColorFactor":[
					0.033102478832006454,
					0.033102478832006454,
					0.033102478832006454,
					1
				],
				"metallicFactor":0,
				"roughnessFactor":0.5
			}
		}
	],
	"meshes":[
		{
			"name":"eSeries UR5e.013",
			"primitives":[
				{
					"attributes":{
						"POSITION":0,
						"NORMAL":1
					},
					"indices":2,
					"material":0
				}
			]
		},
		{
			"name":"eSeries UR5e.066",
			"primitives":[
				{
					"attributes":{
						"POSITION":3,
						"NORMAL":4
					},
					"indices":5,
					"material":1
				}
			]
		}
	],
	"accessors":[
		{
			"bufferView":0,
			"componentType":5126,
			"count":7523,
			"max":[
				75.5,
				75.5,
				0
			],
			"min":[
				-75.5,
				-75.52639770507812,
				-84.8884048461914
			],
			"type":"VEC3"
		},
		{
			"bufferView":1,
			"componentType":5126,
			"count":7523,
			"type":"VEC3"
		},
		{
			"bufferView":2,
			"componentType":5123,
			"count":7794,
			"type":"SCALAR"
		},
		{
			"bufferView":3,
			"componentType":5126,
			"count":6516,
			"max":[
				58.001426696777344,
				58,
				-84.87657165527344
			],
			"min":[
				-58,
				-58,
				-99.0999984741211
			],
			"type":"VEC3"
		},
		{
			"bufferView":4,
			"componentType":5126,
			"count":6516,
			"type":"VEC3"
		},
		{
			"bufferView":5,
			"componentType":5123,
			"count":6720,
			"type":"SCALAR"
		}
	],
	"bufferViews":[
		{
			"buffer":0,
			"byteLength":90276,
			"byteOffset":0,
			"target":34962
		},
		{
			"buffer":0,
			"byteLength":90276,
			"byteOffset":90276,
			"target":34962
		},
		{
			"buffer":0,
			"byteLength":15588,
			"byteOffset":180552,
			"target":34963
		},
		{
			"buffer":0,
			"byteLength":78192,
			"byteOffset":196140,
			"target":34962
		},
		{
			"buffer":0,
			"byteLength":78192,
			"byteOffset":274332,
			"target":34962
		},
		{
			"buffer":0,
			"byteLength":13440,
			"byteOffset":352524,
			"target":34963
		}
	],
	"buffers":[
		{
			"byteLength":365964,
			"uri":"base.bin"
		}
	]
}
