{
	"asset":{
		"generator":"Khronos glTF Blender I/O v3.6.28",
		"version":"2.0"
	},
	"scene":0,
	"scenes":[
		{
			"name":"Scene",
			"nodes":[
				0
			]
		}
	],
	"nodes":[
		{
			"mesh":0,
			"name":"base"
		}
	],
	"meshes":[
		{
			"name":"base",
			"primitives":[
				{
					"attributes":{
						"POSITION":0,
						"NORMAL":1
					},
					"indices":2
				}
			]
		}
	],
	"accessors":[
		{
			"bufferView":0,
			"componentType":5126,
			"count":212,
			"max":[
				0.0754990205168724,
				0.09909871220588684,
				0.0755084678530693
			],
			"min":[
				-0.07547873258590698,
				-9.570882042453377e-08,
				-0.07547910511493683
			],
			"type":"VEC3"
		},
		{
			"bufferView":1,
			"componentType":5126,
			"count":212,
			"type":"VEC3"
		},
		{
			"bufferView":2,
			"componentType":5123,
			"count":1260,
			"type":"SCALAR"
		}
	],
	"bufferViews":[
		{
			"buffer":0,
			"byteLength":2544,
			"byteOffset":0,
			"target":34962
		},
		{
			"buffer":0,
			"byteLength":2544,
			"byteOffset":2544,
			"target":34962
		},
		{
			"buffer":0,
			"byteLength":2520,
			"byteOffset":5088,
			"target":34963
		}
	],
	"buffers":[
		{
			"byteLength":7608,
			"uri":"base.stl.bin"
		}
	]
}
