{
	"asset":{
		"generator":"Khronos glTF Blender I/O v3.6.28",
		"version":"2.0"
	},
	"scene":0,
	"scenes":[
		{
			"name":"Scene",
			"nodes":[
				0,
				1,
				2,
				3,
				4,
				5,
				6
			]
		}
	],
	"nodes":[
		{
			"mesh":0,
			"name":"eSeries_UR5e_028",
			"rotation":[
				0,
				-0.7071068286895752,
				0.7071068286895752,
				1.3767879636361613e-07
			],
			"scale":[
				0.0009999870089814067,
				0.0009999870089814067,
				0.0009999870089814067
			]
		},
		{
			"mesh":1,
			"name":"eSeries_UR5e_020",
			"rotation":[
				0,
				-0.7071068286895752,
				0.7071068286895752,
				1.3767879636361613e-07
			],
			"scale":[
				0.0009999870089814067,
				0.0009999870089814067,
				0.0009999870089814067
			]
		},
		{
			"mesh":2,
			"name":"eSeries_UR5e_021",
			"rotation":[
				0,
				-0.7071068286895752,
				0.7071068286895752,
				1.3767879636361613e-07
			],
			"scale":[
				0.0009999870089814067,
				0.0009999870089814067,
				0.0009999870089814067
			]
		},
		{
			"mesh":3,
			"name":"eSeries_UR5e_022",
			"rotation":[
				0,
				-0.7071068286895752,
				0.7071068286895752,
				1.3767879636361613e-07
			],
			"scale":[
				0.0009999870089814067,
				0.0009999870089814067,
				0.0009999870089814067
			]
		},
		{
			"mesh":4,
			"name":"eSeries_UR5e_023",
			"rotation":[
				0,
				-0.7071068286895752,
				0.7071068286895752,
				1.3767879636361613e-07
			],
			"scale":[
				0.0009999870089814067,
				0.0009999870089814067,
				0.0009999870089814067
			]
		},
		{
			"mesh":5,
			"name":"eSeries_UR5e_024",
			"rotation":[
				0,
				-0.7071068286895752,
				0.7071068286895752,
				1.3767879636361613e-07
			],
			"scale":[
				0.0009999870089814067,
				0.0009999870089814067,
				0.0009999870089814067
			]
		},
		{
			"mesh":6,
			"name":"eSeries_UR5e_025",
			"rotation":[
				0,
				-0.7071068286895752,
				0.7071068286895752,
				1.3767879636361613e-07
			],
			"scale":[
				0.0009999870089814067,
				0.0009999870089814067,
				0.0009999870089814067
			]
		}
	],
	"materials":[
		{
			"doubleSided":true,
			"name":"JointGrey",
			"pbrMetallicRoughness":{
				"baseColorFactor":[
					0.27843141555786133,
					0.27843141555786133,
					0.27843141555786133,
					1
				],
				"metallicFactor":0,
				"roughnessFactor":0.5
			}
		},
		{
			"doubleSided":true,
			"name":"Black",
			"pbrMetallicRoughness":{
				"baseColorFactor":[
					0.033102478832006454,
					0.033102478832006454,
					0.033102478832006454,
					1
				],
				"metallicFactor":0,
				"roughnessFactor":0.5
			}
		},
		{
			"doubleSided":true,
			"name":"LinkGrey",
			"pbrMetallicRoughness":{
				"baseColorFactor":[
					0.8203921914100647,
					0.8203921914100647,
					0.8203921914100647,
					1
				],
				"metallicFactor":0,
				"roughnessFactor":0.5
			}
		},
		{
			"doubleSided":true,
			"name":"URBlue",
			"pbrMetallicRoughness":{
				"baseColorFactor":[
					0.4901961088180542,
					0.6784313917160034,
					0.800000011920929,
					1
				],
				"metallicFactor":0,
				"roughnessFactor":0.5
			}
		}
	],
	"meshes":[
		{
			"name":"eSeries UR5e.028",
			"primitives":[
				{
					"attributes":{
						"POSITION":0,
						"NORMAL":1
					},
					"indices":2,
					"material":0
				}
			]
		},
		{
			"name":"eSeries UR5e.077",
			"primitives":[
				{
					"attributes":{
						"POSITION":3,
						"NORMAL":4
					},
					"indices":5,
					"material":0
				}
			]
		},
		{
			"name":"eSeries UR5e.078",
			"primitives":[
				{
					"attributes":{
						"POSITION":6,
						"NORMAL":7
					},
					"indices":8,
					"material":1
				}
			]
		},
		{
			"name":"eSeries UR5e.079",
			"primitives":[
				{
					"attributes":{
						"POSITION":9,
						"NORMAL":10
					},
					"indices":11,
					"material":2
				}
			]
		},
		{
			"name":"eSeries UR5e.080",
			"primitives":[
				{
					"attributes":{
						"POSITION":12,
						"NORMAL":13
					},
					"indices":14,
					"material":1
				}
			]
		},
		{
			"name":"eSeries UR5e.081",
			"primitives":[
				{
					"attributes":{
						"POSITION":15,
						"NORMAL":16
					},
					"indices":17,
					"material":3
				}
			]
		},
		{
			"name":"eSeries UR5e.082",
			"primitives":[
				{
					"attributes":{
						"POSITION":18,
						"NORMAL":19
					},
					"indices":20,
					"material":1
				}
			]
		}
	],
	"accessors":[
		{
			"bufferView":0,
			"componentType":5126,
			"count":10695,
			"max":[
				37.839420318603516,
				45.899940490722656,
				-345.8924865722656
			],
			"min":[
				-37.85340881347656,
				-40.70903015136719,
				-429.56903076171875
			],
			"type":"VEC3"
		},
		{
			"bufferView":1,
			"componentType":5126,
			"count":10695,
			"type":"VEC3"
		},
		{
			"bufferView":2,
			"componentType":5123,
			"count":11445,
			"type":"SCALAR"
		},
		{
			"bufferView":3,
			"componentType":5126,
			"count":2052,
			"max":[
				57.79315948486328,
				53.216609954833984,
				58.35523986816406
			],
			"min":[
				-58.03608703613281,
				-48.30617904663086,
				-63.092529296875
			],
			"type":"VEC3"
		},
		{
			"bufferView":4,
			"componentType":5126,
			"count":2052,
			"type":"VEC3"
		},
		{
			"bufferView":5,
			"componentType":5123,
			"count":2052,
			"type":"SCALAR"
		},
		{
			"bufferView":6,
			"componentType":5126,
			"count":3948,
			"max":[
				47.96839904785156,
				47.596778869628906,
				-63.09097671508789
			],
			"min":[
				-47.968387603759766,
				-48.40007019042969,
				-76.4940414428711
			],
			"type":"VEC3"
		},
		{
			"bufferView":7,
			"componentType":5126,
			"count":3948,
			"type":"VEC3"
		},
		{
			"bufferView":8,
			"componentType":5123,
			"count":3960,
			"type":"SCALAR"
		},
		{
			"bufferView":9,
			"componentType":5126,
			"count":924,
			"max":[
				47.86454772949219,
				47.521827697753906,
				-76.4919204711914
			],
			"min":[
				-47.9233283996582,
				-48.326847076416016,
				-339.0928955078125
			],
			"type":"VEC3"
		},
		{
			"bufferView":10,
			"componentType":5126,
			"count":924,
			"type":"VEC3"
		},
		{
			"bufferView":11,
			"componentType":5123,
			"count":963,
			"type":"SCALAR"
		},
		{
			"bufferView":12,
			"componentType":5126,
			"count":3838,
			"max":[
				37.489498138427734,
				37.08942794799805,
				-339.0924987792969
			],
			"min":[
				-37.5,
				-37.88956069946289,
				-345.8924865722656
			],
			"type":"VEC3"
		},
		{
			"bufferView":13,
			"componentType":5126,
			"count":3838,
			"type":"VEC3"
		},
		{
			"bufferView":14,
			"componentType":5123,
			"count":3840,
			"type":"SCALAR"
		},
		{
			"bufferView":15,
			"componentType":5126,
			"count":19492,
			"max":[
				39.33987045288086,
				-7.243645191192627,
				-352.40118408203125
			],
			"min":[
				-39.35511016845703,
				-56.45219039916992,
				-431.0752868652344
			],
			"type":"VEC3"
		},
		{
			"bufferView":16,
			"componentType":5126,
			"count":19492,
			"type":"VEC3"
		},
		{
			"bufferView":17,
			"componentType":5123,
			"count":19620,
			"type":"SCALAR"
		},
		{
			"bufferView":18,
			"componentType":5126,
			"count":3168,
			"max":[
				37.497520446777344,
				53.449928283691406,
				-354.215087890625
			],
			"min":[
				-37.537147521972656,
				45.899940490722656,
				-429.2301940917969
			],
			"type":"VEC3"
		},
		{
			"bufferView":19,
			"componentType":5126,
			"count":3168,
			"type":"VEC3"
		},
		{
			"bufferView":20,
			"componentType":5123,
			"count":3288,
			"type":"SCALAR"
		}
	],
	"bufferViews":[
		{
			"buffer":0,
			"byteLength":128340,
			"byteOffset":0,
			"target":34962
		},
		{
			"buffer":0,
			"byteLength":128340,
			"byteOffset":128340,
			"target":34962
		},
		{
			"buffer":0,
			"byteLength":22890,
			"byteOffset":256680,
			"target":34963
		},
		{
			"buffer":0,
			"byteLength":24624,
			"byteOffset":279572,
			"target":34962
		},
		{
			"buffer":0,
			"byteLength":24624,
			"byteOffset":304196,
			"target":34962
		},
		{
			"buffer":0,
			"byteLength":4104,
			"byteOffset":328820,
			"target":34963
		},
		{
			"buffer":0,
			"byteLength":47376,
			"byteOffset":332924,
			"target":34962
		},
		{
			"buffer":0,
			"byteLength":47376,
			"byteOffset":380300,
			"target":34962
		},
		{
			"buffer":0,
			"byteLength":7920,
			"byteOffset":427676,
			"target":34963
		},
		{
			"buffer":0,
			"byteLength":11088,
			"byteOffset":435596,
			"target":34962
		},
		{
			"buffer":0,
			"byteLength":11088,
			"byteOffset":446684,
			"target":34962
		},
		{
			"buffer":0,
			"byteLength":1926,
			"byteOffset":457772,
			"target":34963
		},
		{
			"buffer":0,
			"byteLength":46056,
			"byteOffset":459700,
			"target":34962
		},
		{
			"buffer":0,
			"byteLength":46056,
			"byteOffset":505756,
			"target":34962
		},
		{
			"buffer":0,
			"byteLength":7680,
			"byteOffset":551812,
			"target":34963
		},
		{
			"buffer":0,
			"byteLength":233904,
			"byteOffset":559492,
			"target":34962
		},
		{
			"buffer":0,
			"byteLength":233904,
			"byteOffset":793396,
			"target":34962
		},
		{
			"buffer":0,
			"byteLength":39240,
			"byteOffset":1027300,
			"target":34963
		},
		{
			"buffer":0,
			"byteLength":38016,
			"byteOffset":1066540,
			"target":34962
		},
		{
			"buffer":0,
			"byteLength":38016,
			"byteOffset":1104556,
			"target":34962
		},
		{
			"buffer":0,
			"byteLength":6576,
			"byteOffset":1142572,
			"target":34963
		}
	],
	"buffers":[
		{
			"byteLength":1149148,
			"uri":"forearm.dae.bin"
		}
	]
}
