{
	"asset":{
		"generator":"Khronos glTF Blender I/O v3.6.28",
		"version":"2.0"
	},
	"scene":0,
	"scenes":[
		{
			"name":"Scene",
			"nodes":[
				0,
				1,
				2
			]
		}
	],
	"nodes":[
		{
			"mesh":0,
			"name":"eSeries_UR5e_001",
			"rotation":[
				0,
				-0.7071068286895752,
				0.7071068286895752,
				1.3767879636361613e-07
			],
			"scale":[
				0.0009999870089814067,
				0.0009999870089814067,
				0.0009999870089814067
			]
		},
		{
			"mesh":1,
			"name":"eSeries_UR5e_007",
			"rotation":[
				0,
				-0.7071068286895752,
				0.7071068286895752,
				1.3767879636361613e-07
			],
			"scale":[
				0.0009999870089814067,
				0.0009999870089814067,
				0.0009999870089814067
			]
		},
		{
			"mesh":2,
			"name":"eSeries_UR5e_008",
			"rotation":[
				0,
				-0.7071068286895752,
				0.7071068286895752,
				1.3767879636361613e-07
			],
			"scale":[
				0.0009999870089814067,
				0.0009999870089814067,
				0.0009999870089814067
			]
		}
	],
	"materials":[
		{
			"doubleSided":true,
			"name":"JointGrey",
			"pbrMetallicRoughness":{
				"baseColorFactor":[
					0.27843141555786133,
					0.27843141555786133,
					0.27843141555786133,
					1
				],
				"metallicFactor":0,
				"roughnessFactor":0.5
			}
		},
		{
			"doubleSided":true,
			"name":"Black",
			"pbrMetallicRoughness":{
				"baseColorFactor":[
					0.033102478832006454,
					0.033102478832006454,
					0.033102478832006454,
					1
				],
				"metallicFactor":0,
				"roughnessFactor":0.5
			}
		},
		{
			"doubleSided":true,
			"name":"URBlue",
			"pbrMetallicRoughness":{
				"baseColorFactor":[
					0.4901961088180542,
					0.6784313917160034,
					0.800000011920929,
					1
				],
				"metallicFactor":0,
				"roughnessFactor":0.5
			}
		}
	],
	"meshes":[
		{
			"name":"eSeries UR5e.001",
			"primitives":[
				{
					"attributes":{
						"POSITION":0,
						"NORMAL":1
					},
					"indices":2,
					"material":0
				}
			]
		},
		{
			"name":"eSeries UR5e.067",
			"primitives":[
				{
					"attributes":{
						"POSITION":3,
						"NORMAL":4
					},
					"indices":5,
					"material":1
				}
			]
		},
		{
			"name":"eSeries UR5e.068",
			"primitives":[
				{
					"attributes":{
						"POSITION":6,
						"NORMAL":7
					},
					"indices":8,
					"material":2
				}
			]
		}
	],
	"accessors":[
		{
			"bufferView":0,
			"componentType":5126,
			"count":28140,
			"max":[
				58.331787109375,
				60.200557708740234,
				63.90210723876953
			],
			"min":[
				-58.32910919189453,
				-58.29792022705078,
				-61.962947845458984
			],
			"type":"VEC3"
		},
		{
			"bufferView":1,
			"componentType":5126,
			"count":28140,
			"type":"VEC3"
		},
		{
			"bufferView":2,
			"componentType":5123,
			"count":28761,
			"type":"SCALAR"
		},
		{
			"bufferView":3,
			"componentType":5126,
			"count":6706,
			"max":[
				57.993438720703125,
				74.40113067626953,
				58.4951171875
			],
			"min":[
				-58,
				60.19843673706055,
				-57.49089813232422
			],
			"type":"VEC3"
		},
		{
			"bufferView":4,
			"componentType":5126,
			"count":6706,
			"type":"VEC3"
		},
		{
			"bufferView":5,
			"componentType":5123,
			"count":6804,
			"type":"SCALAR"
		},
		{
			"bufferView":6,
			"componentType":5126,
			"count":34125,
			"max":[
				60.08212661743164,
				60.10211944580078,
				-8.268399238586426
			],
			"min":[
				-60.09994888305664,
				-60.10340881347656,
				-71.52474975585938
			],
			"type":"VEC3"
		},
		{
			"bufferView":7,
			"componentType":5126,
			"count":34125,
			"type":"VEC3"
		},
		{
			"bufferView":8,
			"componentType":5123,
			"count":34305,
			"type":"SCALAR"
		}
	],
	"bufferViews":[
		{
			"buffer":0,
			"byteLength":337680,
			"byteOffset":0,
			"target":34962
		},
		{
			"buffer":0,
			"byteLength":337680,
			"byteOffset":337680,
			"target":34962
		},
		{
			"buffer":0,
			"byteLength":57522,
			"byteOffset":675360,
			"target":34963
		},
		{
			"buffer":0,
			"byteLength":80472,
			"byteOffset":732884,
			"target":34962
		},
		{
			"buffer":0,
			"byteLength":80472,
			"byteOffset":813356,
			"target":34962
		},
		{
			"buffer":0,
			"byteLength":13608,
			"byteOffset":893828,
			"target":34963
		},
		{
			"buffer":0,
			"byteLength":409500,
			"byteOffset":907436,
			"target":34962
		},
		{
			"buffer":0,
			"byteLength":409500,
			"byteOffset":1316936,
			"target":34962
		},
		{
			"buffer":0,
			"byteLength":68610,
			"byteOffset":1726436,
			"target":34963
		}
	],
	"buffers":[
		{
			"byteLength":1795048,
			"uri":"shoulder.bin"
		}
	]
}
