{
	"asset":{
		"generator":"Khronos glTF Blender I/O v3.6.28",
		"version":"2.0"
	},
	"scene":0,
	"scenes":[
		{
			"name":"Scene",
			"nodes":[
				0
			]
		}
	],
	"nodes":[
		{
			"mesh":0,
			"name":"upperarm"
		}
	],
	"meshes":[
		{
			"name":"upperarm",
			"primitives":[
				{
					"attributes":{
						"POSITION":0,
						"NORMAL":1
					},
					"indices":2
				}
			]
		}
	],
	"accessors":[
		{
			"bufferView":0,
			"componentType":5126,
			"count":998,
			"max":[
				0.06009194627404213,
				0.48459160327911377,
				0.07780319452285767
			],
			"min":[
				-0.06009506434202194,
				-0.060601312667131424,
				-0.07186856865882874
			],
			"type":"VEC3"
		},
		{
			"bufferView":1,
			"componentType":5126,
			"count":998,
			"type":"VEC3"
		},
		{
			"bufferView":2,
			"componentType":5123,
			"count":5976,
			"type":"SCALAR"
		}
	],
	"bufferViews":[
		{
			"buffer":0,
			"byteLength":11976,
			"byteOffset":0,
			"target":34962
		},
		{
			"buffer":0,
			"byteLength":11976,
			"byteOffset":11976,
			"target":34962
		},
		{
			"buffer":0,
			"byteLength":11952,
			"byteOffset":23952,
			"target":34963
		}
	],
	"buffers":[
		{
			"byteLength":35904,
			"uri":"upperarm.stl.bin"
		}
	]
}
