{
	"asset":{
		"generator":"Khronos glTF Blender I/O v3.6.28",
		"version":"2.0"
	},
	"scene":0,
	"scenes":[
		{
			"name":"Scene",
			"nodes":[
				0,
				1,
				2,
				3,
				4,
				5,
				6,
				7
			]
		}
	],
	"nodes":[
		{
			"mesh":0,
			"name":"eSeries_UR5e_009",
			"rotation":[
				0,
				-0.7071068286895752,
				0.7071068286895752,
				1.3767879636361613e-07
			],
			"scale":[
				0.0009999870089814067,
				0.0009999870089814067,
				0.0009999870089814067
			]
		},
		{
			"mesh":1,
			"name":"eSeries_UR5e_010",
			"rotation":[
				0,
				-0.7071068286895752,
				0.7071068286895752,
				1.3767879636361613e-07
			],
			"scale":[
				0.0009999870089814067,
				0.0009999870089814067,
				0.0009999870089814067
			]
		},
		{
			"mesh":2,
			"name":"eSeries_UR5e_011",
			"rotation":[
				0,
				-0.7071068286895752,
				0.7071068286895752,
				1.3767879636361613e-07
			],
			"scale":[
				0.0009999870089814067,
				0.0009999870089814067,
				0.0009999870089814067
			]
		},
		{
			"mesh":3,
			"name":"eSeries_UR5e_012",
			"rotation":[
				0,
				-0.7071068286895752,
				0.7071068286895752,
				1.3767879636361613e-07
			],
			"scale":[
				0.0009999870089814067,
				0.0009999870089814067,
				0.0009999870089814067
			]
		},
		{
			"mesh":4,
			"name":"eSeries_UR5e_014",
			"rotation":[
				0,
				-0.7071068286895752,
				0.7071068286895752,
				1.3767879636361613e-07
			],
			"scale":[
				0.0009999870089814067,
				0.0009999870089814067,
				0.0009999870089814067
			]
		},
		{
			"mesh":5,
			"name":"eSeries_UR5e_017",
			"rotation":[
				0,
				-0.7071068286895752,
				0.7071068286895752,
				1.3767879636361613e-07
			],
			"scale":[
				0.0009999870089814067,
				0.0009999870089814067,
				0.0009999870089814067
			]
		},
		{
			"mesh":6,
			"name":"eSeries_UR5e_018",
			"rotation":[
				0,
				-0.7071068286895752,
				0.7071068286895752,
				1.3767879636361613e-07
			],
			"scale":[
				0.0009999870089814067,
				0.0009999870089814067,
				0.0009999870089814067
			]
		},
		{
			"mesh":7,
			"name":"eSeries_UR5e_019",
			"rotation":[
				0,
				-0.7071068286895752,
				0.7071068286895752,
				1.3767879636361613e-07
			],
			"scale":[
				0.0009999870089814067,
				0.0009999870089814067,
				0.0009999870089814067
			]
		}
	],
	"materials":[
		{
			"doubleSided":true,
			"name":"URBlue",
			"pbrMetallicRoughness":{
				"baseColorFactor":[
					0.4901961088180542,
					0.6784313917160034,
					0.800000011920929,
					1
				],
				"metallicFactor":0,
				"roughnessFactor":0.5
			}
		},
		{
			"doubleSided":true,
			"name":"JointGrey",
			"pbrMetallicRoughness":{
				"baseColorFactor":[
					0.27843141555786133,
					0.27843141555786133,
					0.27843141555786133,
					1
				],
				"metallicFactor":0,
				"roughnessFactor":0.5
			}
		},
		{
			"doubleSided":true,
			"name":"Black",
			"pbrMetallicRoughness":{
				"baseColorFactor":[
					0.033102478832006454,
					0.033102478832006454,
					0.033102478832006454,
					1
				],
				"metallicFactor":0,
				"roughnessFactor":0.5
			}
		},
		{
			"doubleSided":true,
			"name":"LinkGrey",
			"pbrMetallicRoughness":{
				"baseColorFactor":[
					0.8203921914100647,
					0.8203921914100647,
					0.8203921914100647,
					1
				],
				"metallicFactor":0,
				"roughnessFactor":0.5
			}
		}
	],
	"meshes":[
		{
			"name":"eSeries UR5e.069",
			"primitives":[
				{
					"attributes":{
						"POSITION":0,
						"NORMAL":1
					},
					"indices":2,
					"material":0
				}
			]
		},
		{
			"name":"eSeries UR5e.070",
			"primitives":[
				{
					"attributes":{
						"POSITION":3,
						"NORMAL":4
					},
					"indices":5,
					"material":1
				}
			]
		},
		{
			"name":"eSeries UR5e.071",
			"primitives":[
				{
					"attributes":{
						"POSITION":6,
						"NORMAL":7
					},
					"indices":8,
					"material":2
				}
			]
		},
		{
			"name":"eSeries UR5e.072",
			"primitives":[
				{
					"attributes":{
						"POSITION":9,
						"NORMAL":10
					},
					"indices":11,
					"material":0
				}
			]
		},
		{
			"name":"eSeries UR5e.073",
			"primitives":[
				{
					"attributes":{
						"POSITION":12,
						"NORMAL":13
					},
					"indices":14,
					"material":3
				}
			]
		},
		{
			"name":"eSeries UR5e.074",
			"primitives":[
				{
					"attributes":{
						"POSITION":15,
						"NORMAL":16
					},
					"indices":17,
					"material":2
				}
			]
		},
		{
			"name":"eSeries UR5e.075",
			"primitives":[
				{
					"attributes":{
						"POSITION":18,
						"NORMAL":19
					},
					"indices":20,
					"material":1
				}
			]
		},
		{
			"name":"eSeries UR5e.076",
			"primitives":[
				{
					"attributes":{
						"POSITION":21,
						"NORMAL":22
					},
					"indices":23,
					"material":2
				}
			]
		}
	],
	"accessors":[
		{
			"bufferView":0,
			"componentType":5126,
			"count":28832,
			"max":[
				60.09739685058594,
				71.83043670654297,
				60.60210037231445
			],
			"min":[
				-60.07061767578125,
				8.566152572631836,
				-59.591697692871094
			],
			"type":"VEC3"
		},
		{
			"bufferView":1,
			"componentType":5126,
			"count":28832,
			"type":"VEC3"
		},
		{
			"bufferView":2,
			"componentType":5123,
			"count":28995,
			"type":"SCALAR"
		},
		{
			"bufferView":3,
			"componentType":5126,
			"count":23245,
			"max":[
				58.31544876098633,
				62.262569427490234,
				58.77520751953125
			],
			"min":[
				-58.32856750488281,
				-63.601768493652344,
				-59.69794845581055
			],
			"type":"VEC3"
		},
		{
			"bufferView":4,
			"componentType":5126,
			"count":23245,
			"type":"VEC3"
		},
		{
			"bufferView":5,
			"componentType":5123,
			"count":23787,
			"type":"SCALAR"
		},
		{
			"bufferView":6,
			"componentType":5126,
			"count":4186,
			"max":[
				58.003196716308594,
				57.74845886230469,
				-59.69698715209961
			],
			"min":[
				-57.893890380859375,
				-58.17913818359375,
				-73.0988998413086
			],
			"type":"VEC3"
		},
		{
			"bufferView":7,
			"componentType":5126,
			"count":4186,
			"type":"VEC3"
		},
		{
			"bufferView":8,
			"componentType":5123,
			"count":4194,
			"type":"SCALAR"
		},
		{
			"bufferView":9,
			"componentType":5126,
			"count":33068,
			"max":[
				60.070709228515625,
				71.82987976074219,
				-364.4040832519531
			],
			"min":[
				-60.09730911254883,
				8.566152572631836,
				-484.597900390625
			],
			"type":"VEC3"
		},
		{
			"bufferView":10,
			"componentType":5126,
			"count":33068,
			"type":"VEC3"
		},
		{
			"bufferView":11,
			"componentType":5123,
			"count":33273,
			"type":"SCALAR"
		},
		{
			"bufferView":12,
			"componentType":5126,
			"count":1860,
			"max":[
				57.902069091796875,
				57.6749382019043,
				-73.09706115722656
			],
			"min":[
				-57.89447784423828,
				-58.20176696777344,
				-350.89849853515625
			],
			"type":"VEC3"
		},
		{
			"bufferView":13,
			"componentType":5126,
			"count":1860,
			"type":"VEC3"
		},
		{
			"bufferView":14,
			"componentType":5123,
			"count":1860,
			"type":"SCALAR"
		},
		{
			"bufferView":15,
			"componentType":5126,
			"count":4182,
			"max":[
				58.000038146972656,
				57.7529182434082,
				-350.8970947265625
			],
			"min":[
				-57.99673843383789,
				-58.17601013183594,
				-364.29827880859375
			],
			"type":"VEC3"
		},
		{
			"bufferView":16,
			"componentType":5126,
			"count":4182,
			"type":"VEC3"
		},
		{
			"bufferView":17,
			"componentType":5123,
			"count":4194,
			"type":"SCALAR"
		},
		{
			"bufferView":18,
			"componentType":5126,
			"count":19131,
			"max":[
				58.297237396240234,
				62.26286697387695,
				-364.2978820800781
			],
			"min":[
				-58.2623291015625,
				-64.40177917480469,
				-482.6925964355469
			],
			"type":"VEC3"
		},
		{
			"bufferView":19,
			"componentType":5126,
			"count":19131,
			"type":"VEC3"
		},
		{
			"bufferView":20,
			"componentType":5123,
			"count":19680,
			"type":"SCALAR"
		},
		{
			"bufferView":21,
			"componentType":5126,
			"count":4361,
			"max":[
				57.88361740112305,
				-64.40177154541016,
				-366.53680419921875
			],
			"min":[
				-58.00074005126953,
				-77.79956817626953,
				-482.4689025878906
			],
			"type":"VEC3"
		},
		{
			"bufferView":22,
			"componentType":5126,
			"count":4361,
			"type":"VEC3"
		},
		{
			"bufferView":23,
			"componentType":5123,
			"count":4377,
			"type":"SCALAR"
		}
	],
	"bufferViews":[
		{
			"buffer":0,
			"byteLength":345984,
			"byteOffset":0,
			"target":34962
		},
		{
			"buffer":0,
			"byteLength":345984,
			"byteOffset":345984,
			"target":34962
		},
		{
			"buffer":0,
			"byteLength":57990,
			"byteOffset":691968,
			"target":34963
		},
		{
			"buffer":0,
			"byteLength":278940,
			"byteOffset":749960,
			"target":34962
		},
		{
			"buffer":0,
			"byteLength":278940,
			"byteOffset":1028900,
			"target":34962
		},
		{
			"buffer":0,
			"byteLength":47574,
			"byteOffset":1307840,
			"target":34963
		},
		{
			"buffer":0,
			"byteLength":50232,
			"byteOffset":1355416,
			"target":34962
		},
		{
			"buffer":0,
			"byteLength":50232,
			"byteOffset":1405648,
			"target":34962
		},
		{
			"buffer":0,
			"byteLength":8388,
			"byteOffset":1455880,
			"target":34963
		},
		{
			"buffer":0,
			"byteLength":396816,
			"byteOffset":1464268,
			"target":34962
		},
		{
			"buffer":0,
			"byteLength":396816,
			"byteOffset":1861084,
			"target":34962
		},
		{
			"buffer":0,
			"byteLength":66546,
			"byteOffset":2257900,
			"target":34963
		},
		{
			"buffer":0,
			"byteLength":22320,
			"byteOffset":2324448,
			"target":34962
		},
		{
			"buffer":0,
			"byteLength":22320,
			"byteOffset":2346768,
			"target":34962
		},
		{
			"buffer":0,
			"byteLength":3720,
			"byteOffset":2369088,
			"target":34963
		},
		{
			"buffer":0,
			"byteLength":50184,
			"byteOffset":2372808,
			"target":34962
		},
		{
			"buffer":0,
			"byteLength":50184,
			"byteOffset":2422992,
			"target":34962
		},
		{
			"buffer":0,
			"byteLength":8388,
			"byteOffset":2473176,
			"target":34963
		},
		{
			"buffer":0,
			"byteLength":229572,
			"byteOffset":2481564,
			"target":34962
		},
		{
			"buffer":0,
			"byteLength":229572,
			"byteOffset":2711136,
			"target":34962
		},
		{
			"buffer":0,
			"byteLength":39360,
			"byteOffset":2940708,
			"target":34963
		},
		{
			"buffer":0,
			"byteLength":52332,
			"byteOffset":2980068,
			"target":34962
		},
		{
			"buffer":0,
			"byteLength":52332,
			"byteOffset":3032400,
			"target":34962
		},
		{
			"buffer":0,
			"byteLength":8754,
			"byteOffset":3084732,
			"target":34963
		}
	],
	"buffers":[
		{
			"byteLength":3093488,
			"uri":"upperarm.bin"
		}
	]
}
