{
  "asset": {
    "version": "2.0",
    "generator": "Open Asset Import Library (assimp v5.3.0)"
  },
  "extensionsUsed": [
    "KHR_materials_specular",
    "KHR_materials_volume",
    "FB_ngon_encoding"
  ],
  "accessors": [
    {
      "bufferView": 0,
      "byteOffset": 0,
      "componentType": 5126,
      "count": 96,
      "type": "VEC3",
      "max": [
        0.039351001381874084,
        0.05314800143241882,
        0.13880300521850586
      ],
      "min": [
        -0.039347000420093536,
        -0.05673699826002121,
        0.06010499969124794
      ]
    },
    {
      "bufferView": 1,
      "byteOffset": 0,
      "componentType": 5126,
      "count": 96,
      "type": "VEC3",
      "max": [
        1,
        1,
        1
      ],
      "min": [
        -1,
        -1,
        -1
      ]
    },
    {
      "bufferView": 2,
      "byteOffset": 0,
      "componentType": 5125,
      "count": 132,
      "type": "SCALAR",
      "max": [
        95
      ],
      "min": [
        0
      ]
    }
  ],
  "buffers": [
    {
      "byteLength": 2832,
      "uri": "wrist2.bbox.bin"
    }
  ],
  "bufferViews": [
    {
      "buffer": 0,
      "byteOffset": 0,
      "byteLength": 1152,
      "target": 34962
    },
    {
      "buffer": 0,
      "byteOffset": 1152,
      "byteLength": 1152,
      "target": 34962
    },
    {
      "buffer": 0,
      "byteOffset": 2304,
      "byteLength": 528,
      "target": 34963
    }
  ],
  "materials": [
    {
      "name": "DefaultMaterial",
      "pbrMetallicRoughness": {
        "metallicFactor": 0,
        "baseColorFactor": [
          1,
          1,
          1,
          0.3
        ]
      },
      "extensions": {
        "KHR_materials_specular": {
          "specularFactor": 1,
          "specularColorFactor": [
            1,
            1,
            1
          ]
        }
      },
      "alphaMode": "BLEND"
    }
  ],
  "meshes": [
    {
      "primitives": [
        {
          "mode": 4,
          "material": 0,
          "indices": 2,
          "attributes": {
            "POSITION": 0,
            "NORMAL": 1
          }
        }
      ]
    }
  ],
  "nodes": [
    {
      "name": "<STL_BINARY>",
      "children": [
        1
      ]
    },
    {
      "name": "node",
      "mesh": 0
    }
  ],
  "scenes": [
    {
      "nodes": [
        0
      ]
    }
  ],
  "scene": 0
}