{
	"asset":{
		"generator":"Khronos glTF Blender I/O v3.6.28",
		"version":"2.0"
	},
	"scene":0,
	"scenes":[
		{
			"name":"Scene",
			"nodes":[
				0
			]
		}
	],
	"nodes":[
		{
			"mesh":0,
			"name":"wrist2"
		}
	],
	"meshes":[
		{
			"name":"wrist2",
			"primitives":[
				{
					"attributes":{
						"POSITION":0,
						"NORMAL":1
					},
					"indices":2
				}
			]
		}
	],
	"accessors":[
		{
			"bufferView":0,
			"componentType":5126,
			"count":677,
			"max":[
				0.03935113549232483,
				0.1388034075498581,
				0.05673690512776375
			],
			"min":[
				-0.03934735432267189,
				0.05358664691448212,
				-0.05314764007925987
			],
			"type":"VEC3"
		},
		{
			"bufferView":1,
			"componentType":5126,
			"count":677,
			"type":"VEC3"
		},
		{
			"bufferView":2,
			"componentType":5123,
			"count":4050,
			"type":"SCALAR"
		}
	],
	"bufferViews":[
		{
			"buffer":0,
			"byteLength":8124,
			"byteOffset":0,
			"target":34962
		},
		{
			"buffer":0,
			"byteLength":8124,
			"byteOffset":8124,
			"target":34962
		},
		{
			"buffer":0,
			"byteLength":8100,
			"byteOffset":16248,
			"target":34963
		}
	],
	"buffers":[
		{
			"byteLength":24348,
			"uri":"wrist2.stl.bin"
		}
	]
}
