{
	"asset":{
		"generator":"Khronos glTF Blender I/O v3.6.28",
		"version":"2.0"
	},
	"scene":0,
	"scenes":[
		{
			"name":"Scene",
			"nodes":[
				0
			]
		}
	],
	"nodes":[
		{
			"mesh":0,
			"name":"wrist3"
		}
	],
	"meshes":[
		{
			"name":"wrist3",
			"primitives":[
				{
					"attributes":{
						"POSITION":0,
						"NORMAL":1
					},
					"indices":2
				}
			]
		}
	],
	"accessors":[
		{
			"bufferView":0,
			"componentType":5126,
			"count":73,
			"max":[
				0.037626683712005615,
				0.04351700469851494,
				-0.05314531922340393
			],
			"min":[
				-0.03747909143567085,
				-0.03803716227412224,
				-0.09895944595336914
			],
			"type":"VEC3"
		},
		{
			"bufferView":1,
			"componentType":5126,
			"count":73,
			"type":"VEC3"
		},
		{
			"bufferView":2,
			"componentType":5123,
			"count":426,
			"type":"SCALAR"
		}
	],
	"bufferViews":[
		{
			"buffer":0,
			"byteLength":876,
			"byteOffset":0,
			"target":34962
		},
		{
			"buffer":0,
			"byteLength":876,
			"byteOffset":876,
			"target":34962
		},
		{
			"buffer":0,
			"byteLength":852,
			"byteOffset":1752,
			"target":34963
		}
	],
	"buffers":[
		{
			"byteLength":2604,
			"uri":"wrist3.stl.bin"
		}
	]
}
