{
	"asset":{
		"generator":"Khronos glTF Blender I/O v3.6.28",
		"version":"2.0"
	},
	"scene":0,
	"scenes":[
		{
			"name":"Scene",
			"nodes":[
				0,
				1,
				2
			]
		}
	],
	"nodes":[
		{
			"mesh":0,
			"name":"eSeries_UR5e_043",
			"rotation":[
				0,
				-0.7071068286895752,
				0.7071068286895752,
				1.3767879636361613e-07
			],
			"scale":[
				0.0009999870089814067,
				0.0009999870089814067,
				0.0009999870089814067
			]
		},
		{
			"mesh":1,
			"name":"eSeries_UR5e_026",
			"rotation":[
				0,
				-0.7071068286895752,
				0.7071068286895752,
				1.3767879636361613e-07
			],
			"scale":[
				0.0009999870089814067,
				0.0009999870089814067,
				0.0009999870089814067
			]
		},
		{
			"mesh":2,
			"name":"eSeries_UR5e_027",
			"rotation":[
				0,
				-0.7071068286895752,
				0.7071068286895752,
				1.3767879636361613e-07
			],
			"scale":[
				0.0009999870089814067,
				0.0009999870089814067,
				0.0009999870089814067
			]
		}
	],
	"materials":[
		{
			"doubleSided":true,
			"name":"JointGrey",
			"pbrMetallicRoughness":{
				"baseColorFactor":[
					0.27843141555786133,
					0.27843141555786133,
					0.27843141555786133,
					1
				],
				"metallicFactor":0,
				"roughnessFactor":0.5
			}
		},
		{
			"doubleSided":true,
			"name":"URBlue",
			"pbrMetallicRoughness":{
				"baseColorFactor":[
					0.4901961088180542,
					0.6784313917160034,
					0.800000011920929,
					1
				],
				"metallicFactor":0,
				"roughnessFactor":0.5
			}
		},
		{
			"doubleSided":true,
			"name":"Black",
			"pbrMetallicRoughness":{
				"baseColorFactor":[
					0.033102478832006454,
					0.033102478832006454,
					0.033102478832006454,
					1
				],
				"metallicFactor":0,
				"roughnessFactor":0.5
			}
		}
	],
	"meshes":[
		{
			"name":"eSeries UR5e.043",
			"primitives":[
				{
					"attributes":{
						"POSITION":0,
						"NORMAL":1
					},
					"indices":2,
					"material":0
				}
			]
		},
		{
			"name":"eSeries UR5e.083",
			"primitives":[
				{
					"attributes":{
						"POSITION":3,
						"NORMAL":4
					},
					"indices":5,
					"material":1
				}
			]
		},
		{
			"name":"eSeries UR5e.084",
			"primitives":[
				{
					"attributes":{
						"POSITION":6,
						"NORMAL":7
					},
					"indices":8,
					"material":2
				}
			]
		}
	],
	"accessors":[
		{
			"bufferView":0,
			"componentType":5126,
			"count":19161,
			"max":[
				37.839500427246094,
				164.09249877929688,
				40.55889892578125
			],
			"min":[
				-37.84568786621094,
				53.44997024536133,
				-46.037288665771484
			],
			"type":"VEC3"
		},
		{
			"bufferView":1,
			"componentType":5126,
			"count":19161,
			"type":"VEC3"
		},
		{
			"bufferView":2,
			"componentType":5123,
			"count":19878,
			"type":"SCALAR"
		},
		{
			"bufferView":3,
			"componentType":5126,
			"count":28343,
			"max":[
				39.34367752075195,
				165.62600708007812,
				56.294090270996094
			],
			"min":[
				-39.35585021972656,
				86.95671081542969,
				7.071782112121582
			],
			"type":"VEC3"
		},
		{
			"bufferView":4,
			"componentType":5126,
			"count":28343,
			"type":"VEC3"
		},
		{
			"bufferView":5,
			"componentType":5123,
			"count":28539,
			"type":"SCALAR"
		},
		{
			"bufferView":6,
			"componentType":5126,
			"count":3303,
			"max":[
				37.519378662109375,
				163.810791015625,
				-46.037288665771484
			],
			"min":[
				-37.497520446777344,
				88.80968475341797,
				-53.587337493896484
			],
			"type":"VEC3"
		},
		{
			"bufferView":7,
			"componentType":5126,
			"count":3303,
			"type":"VEC3"
		},
		{
			"bufferView":8,
			"componentType":5123,
			"count":3447,
			"type":"SCALAR"
		}
	],
	"bufferViews":[
		{
			"buffer":0,
			"byteLength":229932,
			"byteOffset":0,
			"target":34962
		},
		{
			"buffer":0,
			"byteLength":229932,
			"byteOffset":229932,
			"target":34962
		},
		{
			"buffer":0,
			"byteLength":39756,
			"byteOffset":459864,
			"target":34963
		},
		{
			"buffer":0,
			"byteLength":340116,
			"byteOffset":499620,
			"target":34962
		},
		{
			"buffer":0,
			"byteLength":340116,
			"byteOffset":839736,
			"target":34962
		},
		{
			"buffer":0,
			"byteLength":57078,
			"byteOffset":1179852,
			"target":34963
		},
		{
			"buffer":0,
			"byteLength":39636,
			"byteOffset":1236932,
			"target":34962
		},
		{
			"buffer":0,
			"byteLength":39636,
			"byteOffset":1276568,
			"target":34962
		},
		{
			"buffer":0,
			"byteLength":6894,
			"byteOffset":1316204,
			"target":34963
		}
	],
	"buffers":[
		{
			"byteLength":1323100,
			"uri":"wrist1.dae.bin"
		}
	]
}
