{
	"asset":{
		"generator":"Khronos glTF Blender I/O v3.6.28",
		"version":"2.0"
	},
	"scene":0,
	"scenes":[
		{
			"name":"Scene",
			"nodes":[
				0
			]
		}
	],
	"nodes":[
		{
			"mesh":0,
			"name":"eSeries_UR5e_058",
			"rotation":[
				0,
				-0.7071068286895752,
				0.7071068286895752,
				1.3767879636361613e-07
			],
			"scale":[
				0.0009999870089814067,
				0.0009999870089814067,
				0.0009999870089814067
			]
		}
	],
	"materials":[
		{
			"doubleSided":true,
			"name":"LinkGrey",
			"pbrMetallicRoughness":{
				"baseColorFactor":[
					0.8203921914100647,
					0.8203921914100647,
					0.8203921914100647,
					1
				],
				"metallicFactor":0,
				"roughnessFactor":0.5
			}
		}
	],
	"meshes":[
		{
			"name":"eSeries UR5e.058",
			"primitives":[
				{
					"attributes":{
						"POSITION":0,
						"NORMAL":1
					},
					"indices":2,
					"material":0
				}
			]
		}
	],
	"accessors":[
		{
			"bufferView":0,
			"componentType":5126,
			"count":2490,
			"max":[
				37.55392074584961,
				98.9365005493164,
				38.05476760864258
			],
			"min":[
				-37.5482177734375,
				53.147727966308594,
				-43.51730728149414
			],
			"type":"VEC3"
		},
		{
			"bufferView":1,
			"componentType":5126,
			"count":2490,
			"type":"VEC3"
		},
		{
			"bufferView":2,
			"componentType":5123,
			"count":2733,
			"type":"SCALAR"
		}
	],
	"bufferViews":[
		{
			"buffer":0,
			"byteLength":29880,
			"byteOffset":0,
			"target":34962
		},
		{
			"buffer":0,
			"byteLength":29880,
			"byteOffset":29880,
			"target":34962
		},
		{
			"buffer":0,
			"byteLength":5466,
			"byteOffset":59760,
			"target":34963
		}
	],
	"buffers":[
		{
			"byteLength":65228,
			"uri":"wrist3.dae.bin"
		}
	]
}
