{
	"asset":{
		"generator":"Khronos glTF Blender I/O v3.6.28",
		"version":"2.0"
	},
	"scene":0,
	"scenes":[
		{
			"name":"Scene",
			"nodes":[
				0,
				1,
				2
			]
		}
	],
	"nodes":[
		{
			"mesh":0,
			"name":"eSeries_UR5e_049",
			"rotation":[
				0,
				-0.7071068286895752,
				0.7071068286895752,
				1.3767879636361613e-07
			],
			"scale":[
				0.0009999870089814067,
				0.0009999870089814067,
				0.0009999870089814067
			]
		},
		{
			"mesh":1,
			"name":"eSeries_UR5e_029",
			"rotation":[
				0,
				-0.7071068286895752,
				0.7071068286895752,
				1.3767879636361613e-07
			],
			"scale":[
				0.0009999870089814067,
				0.0009999870089814067,
				0.0009999870089814067
			]
		},
		{
			"mesh":2,
			"name":"eSeries_UR5e_002",
			"rotation":[
				0,
				-0.7071068286895752,
				0.7071068286895752,
				1.3767879636361613e-07
			],
			"scale":[
				0.0009999870089814067,
				0.0009999870089814067,
				0.0009999870089814067
			]
		}
	],
	"materials":[
		{
			"doubleSided":true,
			"name":"JointGrey",
			"pbrMetallicRoughness":{
				"baseColorFactor":[
					0.27843141555786133,
					0.27843141555786133,
					0.27843141555786133,
					1
				],
				"metallicFactor":0,
				"roughnessFactor":0.5
			}
		},
		{
			"doubleSided":true,
			"name":"URBlue",
			"pbrMetallicRoughness":{
				"baseColorFactor":[
					0.4901961088180542,
					0.6784313917160034,
					0.800000011920929,
					1
				],
				"metallicFactor":0,
				"roughnessFactor":0.5
			}
		},
		{
			"doubleSided":true,
			"name":"Black",
			"pbrMetallicRoughness":{
				"baseColorFactor":[
					0.033102478832006454,
					0.033102478832006454,
					0.033102478832006454,
					1
				],
				"metallicFactor":0,
				"roughnessFactor":0.5
			}
		}
	],
	"meshes":[
		{
			"name":"eSeries UR5e.049",
			"primitives":[
				{
					"attributes":{
						"POSITION":0,
						"NORMAL":1
					},
					"indices":2,
					"material":0
				}
			]
		},
		{
			"name":"eSeries UR5e.085",
			"primitives":[
				{
					"attributes":{
						"POSITION":3,
						"NORMAL":4
					},
					"indices":5,
					"material":1
				}
			]
		},
		{
			"name":"eSeries UR5e.086",
			"primitives":[
				{
					"attributes":{
						"POSITION":6,
						"NORMAL":7
					},
					"indices":8,
					"material":2
				}
			]
		}
	],
	"accessors":[
		{
			"bufferView":0,
			"componentType":5126,
			"count":24673,
			"max":[
				37.86132049560547,
				45.59832763671875,
				-53.587337493896484
			],
			"min":[
				-37.87812805175781,
				-40.99794006347656,
				-137.29119873046875
			],
			"type":"VEC3"
		},
		{
			"bufferView":1,
			"componentType":5126,
			"count":24673,
			"type":"VEC3"
		},
		{
			"bufferView":2,
			"componentType":5123,
			"count":25557,
			"type":"SCALAR"
		},
		{
			"bufferView":3,
			"componentType":5126,
			"count":24783,
			"max":[
				39.34745788574219,
				-7.513350009918213,
				-60.08934020996094
			],
			"min":[
				-39.34996795654297,
				-56.73234939575195,
				-138.78369140625
			],
			"type":"VEC3"
		},
		{
			"bufferView":4,
			"componentType":5126,
			"count":24783,
			"type":"VEC3"
		},
		{
			"bufferView":5,
			"componentType":5123,
			"count":24930,
			"type":"SCALAR"
		},
		{
			"bufferView":6,
			"componentType":5126,
			"count":9957,
			"max":[
				37.500038146972656,
				53.14830780029297,
				-61.93986892700195
			],
			"min":[
				-37.49995803833008,
				45.588279724121094,
				-136.9348907470703
			],
			"type":"VEC3"
		},
		{
			"bufferView":7,
			"componentType":5126,
			"count":9957,
			"type":"VEC3"
		},
		{
			"bufferView":8,
			"componentType":5123,
			"count":10353,
			"type":"SCALAR"
		}
	],
	"bufferViews":[
		{
			"buffer":0,
			"byteLength":296076,
			"byteOffset":0,
			"target":34962
		},
		{
			"buffer":0,
			"byteLength":296076,
			"byteOffset":296076,
			"target":34962
		},
		{
			"buffer":0,
			"byteLength":51114,
			"byteOffset":592152,
			"target":34963
		},
		{
			"buffer":0,
			"byteLength":297396,
			"byteOffset":643268,
			"target":34962
		},
		{
			"buffer":0,
			"byteLength":297396,
			"byteOffset":940664,
			"target":34962
		},
		{
			"buffer":0,
			"byteLength":49860,
			"byteOffset":1238060,
			"target":34963
		},
		{
			"buffer":0,
			"byteLength":119484,
			"byteOffset":1287920,
			"target":34962
		},
		{
			"buffer":0,
			"byteLength":119484,
			"byteOffset":1407404,
			"target":34962
		},
		{
			"buffer":0,
			"byteLength":20706,
			"byteOffset":1526888,
			"target":34963
		}
	],
	"buffers":[
		{
			"byteLength":1547596,
			"uri":"wrist2.dae.bin"
		}
	]
}
