{
	"asset":{
		"generator":"Khronos glTF Blender I/O v3.6.28",
		"version":"2.0"
	},
	"scene":0,
	"scenes":[
		{
			"name":"Scene",
			"nodes":[
				0
			]
		}
	],
	"nodes":[
		{
			"mesh":0,
			"name":"FINGER_PROXIMAL_PHALANX_V3_29.STEP"
		}
	],
	"materials":[
		{
			"doubleSided":true,
			"name":"mat_0.004",
			"pbrMetallicRoughness":{
				"baseColorFactor":[
					0.5972018241882324,
					0.6444796919822693,
					0.8631572127342224,
					1
				]
			}
		},
		{
			"doubleSided":true,
			"name":"mat_1.003",
			"pbrMetallicRoughness":{
				"baseColorFactor":[
					0.027320893481373787,
					0.027320893481373787,
					0.027320893481373787,
					1
				]
			}
		}
	],
	"meshes":[
		{
			"name":"FINGER_PROXIMAL_PHALANX_V3_29.STEP",
			"primitives":[
				{
					"attributes":{
						"POSITION":0,
						"NORMAL":1
					},
					"indices":2,
					"material":0
				},
				{
					"attributes":{
						"POSITION":3,
						"NORMAL":4
					},
					"indices":5,
					"material":1
				}
			]
		}
	],
	"accessors":[
		{
			"bufferView":0,
			"componentType":5126,
			"count":282,
			"max":[
				0.0042500002309679985,
				0.025499999523162842,
				0.058747727423906326
			],
			"min":[
				-0.0032500000670552254,
				-0.025499999523162842,
				0.0512477271258831
			],
			"type":"VEC3"
		},
		{
			"bufferView":1,
			"componentType":5126,
			"count":282,
			"type":"VEC3"
		},
		{
			"bufferView":2,
			"componentType":5123,
			"count":786,
			"type":"SCALAR"
		},
		{
			"bufferView":3,
			"componentType":5126,
			"count":2679,
			"max":[
				0.006500000134110451,
				0.02539999969303608,
				0.06099772825837135
			],
			"min":[
				-0.005499999970197678,
				-0.02539999969303608,
				-0.005499999970197678
			],
			"type":"VEC3"
		},
		{
			"bufferView":4,
			"componentType":5126,
			"count":2679,
			"type":"VEC3"
		},
		{
			"bufferView":5,
			"componentType":5123,
			"count":7098,
			"type":"SCALAR"
		}
	],
	"bufferViews":[
		{
			"buffer":0,
			"byteLength":3384,
			"byteOffset":0,
			"target":34962
		},
		{
			"buffer":0,
			"byteLength":3384,
			"byteOffset":3384,
			"target":34962
		},
		{
			"buffer":0,
			"byteLength":1572,
			"byteOffset":6768,
			"target":34963
		},
		{
			"buffer":0,
			"byteLength":32148,
			"byteOffset":8340,
			"target":34962
		},
		{
			"buffer":0,
			"byteLength":32148,
			"byteOffset":40488,
			"target":34962
		},
		{
			"buffer":0,
			"byteLength":14196,
			"byteOffset":72636,
			"target":34963
		}
	],
	"buffers":[
		{
			"byteLength":86832,
			"uri":"AG-160-95-2b.bin"
		}
	]
}
